<?xml version="1.0" encoding="UTF-8"?>
<!DOCTYPE svg PUBLIC "-//W3C//DTD SVG 1.1//EN" "http://www.w3.org/Graphics/SVG/1.1/DTD/svg11.dtd">
<!-- Creator: CorelDRAW X7 -->
<svg xmlns="http://www.w3.org/2000/svg" xml:space="preserve" width="11.3452mm" height="17.1026mm" version="1.1" style="shape-rendering:geometricPrecision; text-rendering:geometricPrecision; image-rendering:optimizeQuality; fill-rule:evenodd; clip-rule:evenodd"
viewBox="0 0 1135 1710"
 xmlns:xlink="http://www.w3.org/1999/xlink">
 <defs>
  <style type="text/css">
   <![CDATA[
    .fil1 {fill:#FFD43B;fill-rule:nonzero}
    .fil0 {fill:black;fill-rule:nonzero;fill-opacity:0.400000}
    .fil2 {fill:black;fill-opacity:0.501961}
   ]]>
  </style>
 </defs>
 <g id="Capa_x0020_1">
  <metadata id="CorelCorpID_0Corel-Layer"/>
  <g id="_602572788512">
   <path class="fil0" d="M567 0l-2 0c-186,0 -338,147 -353,334l0 1014 0 0c1,196 -27,319 -213,363l1137 0c-186,-44 -214,-167 -213,-363l-1 0 0 -1014c-14,-187 -167,-334 -353,-334l-2 0z"/>
   <path class="fil1" d="M791 1356l0 93c0,189 134,255 169,262l-393 0 -1 0 -1 0 -393 0c35,-7 169,-73 169,-262l0 -93c0,-52 0,-300 0,-300l225 -136 225 136c0,0 0,248 0,300z"/>
   <path class="fil2" d="M791 1356l0 7c-1,0 -2,0 -3,0 -7,0 -14,-6 -14,-14 0,-8 7,-14 14,-14 1,0 2,0 3,0l0 2 0 2 0 1 0 3 0 1 0 3 0 0 0 3 0 0 0 3 0 0 0 3zm68 355l-28 0 0 -1c0,-8 6,-14 14,-14 8,0 14,6 14,14l0 1zm-112 0l-27 0 0 -1c0,-8 6,-14 13,-14 8,0 14,6 14,14l0 1zm-111 0l-28 0 0 -1c0,-8 6,-14 14,-14 8,0 14,6 14,14l0 1zm-112 0l-28 0 0 -1c0,-8 6,-14 14,-14l0 0 0 0c8,0 14,6 14,14l0 1zm-112 0l-27 0 -1 -1c0,-8 7,-14 14,-14 8,0 14,6 14,14l0 1zm-111 0l-28 0 0 -1c0,-8 6,-14 14,-14 7,0 14,6 14,14l0 1zm494 -205l0 2 0 1 1 0 0 1c-3,1 -5,2 -8,2 -7,0 -14,-7 -14,-15 0,-7 7,-14 14,-14 2,0 3,0 4,1l0 0 0 0c0,2 1,5 1,7l0 1 0 0 0 0 0 0c0,2 1,4 1,6l0 0 0 0 0 0 0 0 0 1 0 2 0 0 0 0 0 1 1 3 0 0 0 0 0 1 0 0zm-611 201l2 0 0 -1 0 0m150 -195l0 -1 0 0c1,-2 1,-4 1,-6l0 0 0 0 1 -1 0 0 0 -1 0 0 0 -1 0 -3 0 0 0 -1 0 0 0 0 1 -3 0 -1 0 0 0 -2 0 0 0 0c0,-2 1,-4 1,-6l0 0 0 0 0 0 0 0 0 -1 0 -1c1,0 1,0 2,0 7,0 14,7 14,14 0,8 -7,15 -14,15 -2,0 -4,-1 -6,-1zm5 -455l6 -3c5,2 9,7 9,13 0,8 -7,14 -14,14l-1 0 0 -24zm215 -130l10 -6 9 5c-3,3 -6,4 -10,4l0 0 0 0c-3,0 -7,-1 -9,-3zm229 126l6 4 0 24c-1,0 -2,0 -3,0 -7,0 -14,-6 -14,-14 0,-7 5,-12 11,-14zm-597 654l0 0c1,1 1,2 1,4l0 1m-17 0l0 0 0 0 0 0 0 0 0 0 1 0 0 -1 0 0 1 0 0 0 0 0 0 0 0 0 1 0 0 0 0 0 0 0 1 0 0 0 0 0 0 0 0 0 1 0 0 -1 0 0 0 0 1 0 0 0 0 0 0 0 1 0 0 0 0 0 0 0 2 -1 0 0 0 0 0 0 1 0 0 0 2 -1 0 0 0 0m3 -1l1 0m153 -343l0 -7 0 -3 0 -3 0 -3 0 -4 0 -4 0 -4 1 0c7,0 14,6 14,14 0,8 -7,14 -14,14l-1 0zm0 -134l0 -29 1 0c7,0 14,7 14,15 0,7 -7,14 -14,14l-1 0zm450 -28l0 28c-1,0 -2,0 -3,0 -7,0 -14,-7 -14,-14 0,-8 7,-15 14,-15 1,0 2,0 3,1zm-226 427c8,0 14,7 14,15 0,8 -6,14 -14,14l0 0 0 0c-8,0 -14,-6 -14,-14 0,-8 6,-15 14,-15l0 0 0 0zm-111 0c7,0 14,7 14,15 0,8 -7,14 -14,14l-1 0 0 0c-7,0 -14,-6 -14,-14 0,-8 7,-15 14,-15l0 0 1 0zm223 0c7,0 14,7 14,15 0,8 -7,14 -14,14 -8,0 -14,-6 -14,-14 0,-8 6,-15 14,-15zm111 0c8,0 14,7 14,15 0,8 -6,14 -14,14 -7,0 -14,-6 -14,-14 0,-8 7,-15 14,-15zm-223 -293c8,0 14,6 14,14 0,8 -6,14 -14,14l0 0 0 0c-8,0 -14,-6 -14,-14 0,-8 6,-14 14,-14l0 0 0 0zm-111 0c7,0 14,6 14,14 0,8 -7,14 -14,14l-1 0 0 0c-7,0 -14,-6 -14,-14 0,-8 7,-14 14,-14l0 0 1 0zm223 0c7,0 14,6 14,14 0,8 -7,14 -14,14 -8,0 -14,-6 -14,-14 0,-8 6,-14 14,-14zm-167 67c8,0 14,6 14,14 0,8 -6,14 -14,14l0 0 0 0c-8,0 -14,-6 -14,-14 0,-8 6,-14 14,-14l0 0 0 0zm112 0c8,0 14,6 14,14 0,8 -6,14 -14,14 -8,0 -14,-6 -14,-14 0,-8 6,-14 14,-14zm111 0c8,0 14,6 14,14 0,8 -6,14 -14,14 -7,0 -13,-6 -13,-14 0,-8 6,-14 13,-14zm-168 81c8,0 14,7 14,14 0,8 -6,15 -14,15l0 0 0 0c-8,0 -14,-7 -14,-15 0,-7 6,-14 14,-14l0 0 0 0zm-111 0c7,0 14,7 14,14 0,8 -7,15 -14,15l-1 0 0 0c-7,0 -14,-7 -14,-15 0,-7 7,-14 14,-14l0 0 1 0zm223 0c7,0 14,7 14,14 0,8 -7,15 -14,15 -8,0 -14,-7 -14,-15 0,-7 6,-14 14,-14zm-167 67c8,0 14,7 14,15 0,7 -6,14 -14,14l0 0 0 0c-8,0 -14,-7 -14,-14 0,-8 6,-15 14,-15l0 0 0 0zm112 0c8,0 14,7 14,15 0,7 -6,14 -14,14 -8,0 -14,-7 -14,-14 0,-8 6,-15 14,-15zm111 0c8,0 14,7 14,15 0,7 -6,14 -14,14 -7,0 -13,-7 -13,-14 0,-8 6,-15 13,-15zm-168 -498c8,0 14,6 14,14 0,8 -6,14 -14,14l0 0 0 0c-8,0 -14,-6 -14,-14 0,-8 6,-14 14,-14l0 0 0 0zm-111 0c7,0 14,6 14,14 0,8 -7,14 -14,14l-1 0 0 0c-7,0 -14,-6 -14,-14 0,-8 7,-14 14,-14l0 0 1 0zm223 0c7,0 14,6 14,14 0,8 -7,14 -14,14 -8,0 -14,-6 -14,-14 0,-8 6,-14 14,-14zm-167 67c8,0 14,6 14,14 0,8 -6,14 -14,14l0 0 0 0c-8,0 -14,-6 -14,-14 0,-8 6,-14 14,-14l0 0 0 0zm112 0c8,0 14,6 14,14 0,8 -6,14 -14,14 -8,0 -14,-6 -14,-14 0,-8 6,-14 14,-14zm111 0c8,0 14,6 14,14 0,8 -6,14 -14,14 -7,0 -13,-6 -13,-14 0,-8 6,-14 13,-14zm-168 81c8,0 14,7 14,15 0,7 -6,14 -14,14l0 0 0 0c-8,0 -14,-7 -14,-14 0,-8 6,-15 14,-15l0 0 0 0zm-111 0c7,0 14,7 14,15 0,7 -7,14 -14,14l-1 0 0 0c-7,0 -14,-7 -14,-14 0,-8 7,-15 14,-15l0 0 1 0zm223 0c7,0 14,7 14,15 0,7 -7,14 -14,14 -8,0 -14,-7 -14,-14 0,-8 6,-15 14,-15zm-167 67c8,0 14,7 14,15 0,8 -6,14 -14,14l0 0 0 0c-8,0 -14,-6 -14,-14 0,-8 6,-15 14,-15l0 0 0 0zm112 0c8,0 14,7 14,15 0,8 -6,14 -14,14 -8,0 -14,-6 -14,-14 0,-8 6,-15 14,-15zm111 0c8,0 14,7 14,15 0,8 -6,14 -14,14 -7,0 -13,-6 -13,-14 0,-8 6,-15 13,-15zm-223 -299c8,0 14,6 14,14 0,8 -6,14 -14,14l0 0 0 0c-8,0 -14,-6 -14,-14 0,-8 6,-14 14,-14l0 0 0 0zm112 0c8,0 14,6 14,14 0,8 -6,14 -14,14 -8,0 -14,-6 -14,-14 0,-8 6,-14 14,-14zm-280 660c7,0 14,7 14,15 0,8 -7,14 -14,14 -8,0 -14,-6 -14,-14 0,-8 6,-15 14,-15zm56 -226c8,0 14,6 14,14 0,8 -6,14 -14,14 -7,0 -14,-6 -14,-14 0,-8 7,-14 14,-14zm0 148c8,0 14,7 14,15 0,7 -6,14 -14,14 -7,0 -14,-7 -14,-14 0,-8 7,-15 14,-15zm0 -431c8,0 14,6 14,14 0,8 -6,14 -14,14 -7,0 -14,-6 -14,-14 0,-8 7,-14 14,-14zm0 148c8,0 14,7 14,15 0,8 -6,14 -14,14 -7,0 -14,-6 -14,-14 0,-8 7,-15 14,-15z"/>
  </g>
 </g>
</svg>
