<?xml version="1.0" encoding="UTF-8"?>
<!DOCTYPE svg PUBLIC "-//W3C//DTD SVG 1.1//EN" "http://www.w3.org/Graphics/SVG/1.1/DTD/svg11.dtd">
<!-- Creator: CorelDRAW X7 -->
<svg xmlns="http://www.w3.org/2000/svg" xml:space="preserve" width="114.046mm" height="43.4338mm" version="1.1" style="shape-rendering:geometricPrecision; text-rendering:geometricPrecision; image-rendering:optimizeQuality; fill-rule:evenodd; clip-rule:evenodd"
viewBox="0 0 11405 4343"
 xmlns:xlink="http://www.w3.org/1999/xlink">
 <defs>
  <style type="text/css">
   <![CDATA[
    .fil0 {fill:#17202F}
   ]]>
  </style>
 </defs>
 <g id="Capa_x0020_1">
  <metadata id="CorelCorpID_0Corel-Layer"/>
  <g id="_557824493600">
   <g>
    <path class="fil0" d="M6194 3601l0 88 80 0 4 0 0 4 0 163 0 3 -3 1c-12,3 -27,5 -45,7 -18,1 -39,2 -63,2 -33,0 -62,-5 -84,-14 -23,-9 -40,-24 -51,-42 -23,-37 -34,-104 -34,-199 0,-48 3,-89 9,-121 6,-34 15,-59 27,-77 12,-18 29,-32 51,-41 22,-9 49,-14 80,-14 62,0 132,5 209,15l4 -79 -31 -6 0 0c-72,-13 -136,-19 -193,-19 -49,0 -90,6 -123,20 -34,13 -60,34 -80,60 -39,55 -58,141 -58,260 0,60 5,111 14,155 10,44 24,79 43,107 19,27 46,48 80,62 35,13 77,20 127,20 12,0 28,0 48,-2 19,-1 42,-3 69,-5 27,-3 49,-6 67,-8 16,-2 28,-4 37,-6l0 -334 -184 0zm701 345l0 -236 0 -3 4 0 158 0 2 0 1 2 96 237 112 0 -109 -259 -1 -3 3 -1c36,-17 63,-41 80,-73l0 0c18,-31 27,-71 27,-118 0,-140 -74,-210 -223,-210l-251 0 0 664 101 0zm239 -546c20,21 30,52 30,93 0,19 -2,36 -7,51 -5,16 -12,29 -21,41 -10,12 -22,21 -37,26 -15,6 -32,9 -52,9l-148 0 -4 0 0 -4 0 -243 0 -4 4 0 146 0c39,0 69,11 89,31zm698 454c-22,-10 -39,-25 -51,-45 -11,-19 -19,-45 -25,-78 -6,-32 -8,-70 -8,-114 0,-44 3,-83 8,-115 6,-33 15,-60 26,-80l0 0c12,-21 29,-37 51,-47 21,-10 48,-16 79,-16 31,0 57,6 79,16 21,10 38,26 50,47 11,20 20,47 25,80 6,33 9,71 9,116 0,45 -3,83 -8,115 -6,32 -14,58 -25,77 -12,20 -28,34 -50,44 -22,10 -48,15 -80,15 -32,0 -59,-5 -80,-15zm207 82c35,-13 62,-34 82,-60 20,-27 34,-62 44,-105 10,-43 15,-94 15,-154 0,-59 -5,-110 -15,-154 -10,-43 -25,-79 -45,-107 -20,-28 -47,-49 -81,-63 -35,-14 -77,-21 -127,-21 -50,0 -92,7 -127,21 -35,14 -62,35 -82,63 -20,29 -35,64 -45,108 -11,43 -16,95 -16,153 0,59 5,110 15,153 10,43 25,78 45,105 20,27 47,47 82,61 35,14 78,20 128,20 50,0 92,-6 127,-20zm785 -67c-94,0 -141,-45 -141,-134l0 -453 -102 0 0 451c0,39 5,73 15,101 10,28 25,51 45,69 20,18 45,31 76,40 30,9 66,13 106,13 41,0 76,-4 107,-13 30,-9 56,-22 76,-40 20,-18 35,-41 45,-69 11,-28 16,-62 16,-101l0 -451 -103 0 0 453c0,44 -11,78 -35,100 -24,23 -59,34 -105,34zm777 -132l137 0c37,0 70,-5 98,-15 28,-10 51,-25 70,-44 18,-20 32,-45 42,-73 9,-29 14,-63 14,-101 0,-74 -19,-130 -56,-166 -37,-37 -93,-56 -168,-56l-242 0 0 664 101 0 0 -205 0 -4 4 0zm136 -87l-136 0 -4 0 0 -3 0 -274 0 -4 4 0 136 0c20,0 38,3 53,8 16,6 28,14 38,25 10,10 18,25 22,42 5,17 8,37 8,60 0,48 -10,85 -31,109 -20,25 -50,37 -90,37z"/>
    <path class="fil0" d="M4865 2676l-169 0c-165,-23 -247,-123 -247,-302l0 -744c0,-49 6,-93 20,-131 14,-37 34,-70 61,-97 54,-55 137,-82 247,-82 36,0 70,3 103,8 31,4 61,11 89,21l0 209c-30,-11 -60,-19 -90,-24 -31,-6 -61,-8 -90,-8 -29,0 -54,2 -74,7 -21,6 -36,13 -47,24 -11,11 -19,24 -25,39 -5,15 -8,33 -8,53l0 703c0,41 12,72 37,93l0 0c23,21 59,31 107,31 76,0 141,-10 195,-30l0 207c-28,9 -58,16 -91,21 -6,1 -12,2 -18,2zm1687 -920l0 -122c0,-203 -88,-304 -263,-304l-338 0 0 1341 348 0c175,0 262,-101 262,-303l0 -132c0,-65 -10,-118 -30,-157 -20,-40 -50,-67 -89,-82l-9 -3 8 -3c37,-17 65,-45 83,-84 18,-39 28,-90 28,-151zm-412 -232l120 0c36,0 64,10 82,31 18,21 28,51 28,92l0 122c0,42 -10,73 -28,94 -18,22 -46,32 -82,32l-120 0 -4 0 0 -4 0 -364 0 -3 4 0zm239 698l0 132c0,83 -36,124 -109,124l-130 0 -4 0 0 -4 0 -374 0 -3 4 0 130 0c36,0 64,10 82,31 18,21 27,53 27,94zm789 116l53 333 178 0 -225 -1341 -262 0 -226 1341 177 0 51 -333 0 -3 3 0 247 0 4 0 0 3zm-36 -197l-184 0 -4 0 0 -4 92 -599 3 -23 4 23 93 599 1 4 -5 0zm1062 -811l-184 0 0 461c0,83 2,162 5,237 4,74 9,144 16,210l0 0c2,22 4,39 6,52 1,12 2,20 2,23l0 23 -7 -22c-1,-3 -3,-11 -7,-23 -3,-11 -7,-27 -12,-47 -5,-20 -11,-45 -19,-73 -8,-28 -17,-61 -28,-99 -11,-38 -36,-118 -75,-242 -39,-125 -93,-291 -160,-500l-191 0 0 1341 182 0 0 -472c0,-88 -2,-169 -5,-243 -4,-74 -9,-140 -16,-200 -5,-46 -8,-71 -8,-73l0 -27 7 26 11 39 26 94c11,40 39,132 84,275 45,143 107,337 185,581l188 0 0 -1341zm1055 199l0 -199 -594 0 0 199 200 0 4 0 0 4 0 1138 187 0 0 -1138 0 -4 3 0 200 0zm656 -199l-520 0 0 1341 520 0 0 -199 -332 0 -3 0 0 -4 0 -372 0 -3 3 0 287 0 0 -200 -287 0 -3 0 0 -4 0 -356 0 -4 3 0 332 0 0 -199zm1501 0l-189 0 0 577 0 4 -3 0 -268 0 -4 0 0 -4 0 -577 -187 0 0 1341 187 0 0 -553 0 -4 4 0 268 0 3 0 0 4 0 553 189 0 0 -1341zm-930 1346l-169 0c-165,-23 -247,-123 -247,-302l0 -744c0,-49 6,-93 20,-131 14,-37 34,-70 61,-97 54,-55 137,-82 247,-82 36,0 70,3 103,8 31,4 61,11 89,21l0 209c-30,-11 -60,-19 -90,-24 -31,-6 -61,-8 -90,-8 -29,0 -54,2 -74,7 -21,6 -36,13 -47,24 -11,11 -19,24 -25,39 -5,15 -8,33 -8,53l0 703c0,41 12,72 37,93 23,21 59,31 107,31 76,0 141,-10 195,-30l0 207c-28,9 -58,16 -91,21 -6,1 -12,2 -18,2zm-5263 -75c-25,-30 -45,-66 -57,-106l0 0c-13,-40 -20,-86 -20,-137l0 -1028 186 0 0 1016c0,46 10,80 30,103 20,23 50,35 90,35 40,0 71,-12 91,-35 20,-23 30,-57 30,-103l0 -1016 185 0 0 1028c0,51 -6,97 -19,137 -13,40 -33,76 -58,106 -101,117 -358,118 -458,0z"/>
   </g>
   <path class="fil0" d="M-1 3193c102,7 147,14 304,27 228,653 848,1121 1578,1121 475,0 904,-198 1208,-516 132,-18 273,-30 418,-28 -106,-41 -207,-76 -304,-104 -70,-20 -138,-37 -204,-51 -463,-95 -856,-42 -1308,75 75,-109 210,-285 359,-491 -680,-388 -1512,-271 -2051,-33zm3140 -3121l-119 264c-17,38 -120,-9 -94,-49l155 -247c20,-33 37,-44 54,-35 18,9 19,32 4,67zm-1326 1819c-79,-33 -134,-47 -237,-44 -65,2 -71,-41 -49,-82 132,-237 271,-397 404,-427l0 1c16,-58 32,-114 49,-168 18,-56 38,-111 58,-163 -51,-5 -104,-7 -157,-7 -922,0 -1670,748 -1670,1670 0,89 7,177 20,262 363,-276 791,-434 1229,-452 19,-188 116,-358 326,-462 -269,234 -302,623 -122,934 112,-470 378,-468 325,-199 191,-81 276,-283 287,-451 50,120 35,205 -7,310 396,151 769,435 1073,870 133,-241 210,-517 210,-812 0,-502 -222,-952 -572,-1258 -43,71 -92,142 -147,214 -33,43 -67,86 -103,129 55,126 1,328 -117,573 -21,43 -60,62 -95,8 -57,-86 -99,-122 -170,-167 -56,36 -158,28 -259,-8l-4 6c-11,18 -29,51 -50,75 -25,26 -57,27 -76,17 -41,-22 -20,-95 -4,-134 3,-8 6,-16 10,-25 -88,-55 -154,-131 -152,-210zm1160 -1278c-43,304 -272,737 -358,901 -28,53 -19,58 20,14 183,-203 469,-675 370,-914 -8,-19 -25,-45 -32,-1zm-30 730c193,-326 266,-636 96,-952 -34,66 -208,-13 -173,-87 -447,54 -660,384 -821,886 -62,193 -109,405 -146,607 -14,76 -20,128 44,181 17,14 36,28 57,42 22,-49 46,-98 71,-145 26,-50 53,-100 82,-148 20,-34 41,-67 62,-98 18,-26 32,-56 65,-61 13,-2 26,0 36,6 30,16 38,47 26,77 -6,18 -13,35 -21,53 -15,37 -31,76 -49,114 -24,53 -49,107 -77,159 -19,38 -40,75 -61,112 19,7 38,13 55,17 61,17 100,31 151,-25 22,-23 45,-45 67,-68 11,-11 22,-23 32,-34 183,-198 368,-401 504,-636z"/>
  </g>
 </g>
</svg>
