<?xml version="1.0" encoding="UTF-8" standalone="no"?>
<!-- Creator: CorelDRAW X7 -->

<svg
   xmlns:dc="http://purl.org/dc/elements/1.1/"
   xmlns:cc="http://creativecommons.org/ns#"
   xmlns:rdf="http://www.w3.org/1999/02/22-rdf-syntax-ns#"
   xmlns:svg="http://www.w3.org/2000/svg"
   xmlns="http://www.w3.org/2000/svg"
   xmlns:sodipodi="http://sodipodi.sourceforge.net/DTD/sodipodi-0.dtd"
   xmlns:inkscape="http://www.inkscape.org/namespaces/inkscape"
   xml:space="preserve"
   width="33.0198mm"
   height="12.6998mm"
   version="1.1"
   style="shape-rendering:geometricPrecision; text-rendering:geometricPrecision; image-rendering:optimizeQuality; fill-rule:evenodd; clip-rule:evenodd"
   viewBox="0 0 3302 1270"
   id="svg3685"
   inkscape:version="0.91 r13725"
   sodipodi:docname="scipyla.h.svg"><metadata
     id="metadata3718"><rdf:RDF><cc:Work
         rdf:about=""><dc:format>image/svg+xml</dc:format><dc:type
           rdf:resource="http://purl.org/dc/dcmitype/StillImage" /><dc:title></dc:title></cc:Work></rdf:RDF></metadata><sodipodi:namedview
     pagecolor="#000000"
     bordercolor="#666666"
     borderopacity="1"
     objecttolerance="10"
     gridtolerance="10"
     guidetolerance="10"
     inkscape:pageopacity="0"
     inkscape:pageshadow="2"
     inkscape:window-width="1233"
     inkscape:window-height="670"
     id="namedview3716"
     showgrid="false"
     showguides="false"
     inkscape:zoom="6.9018878"
     inkscape:cx="51.837084"
     inkscape:cy="25.708421"
     inkscape:window-x="18"
     inkscape:window-y="21"
     inkscape:window-maximized="0"
     inkscape:current-layer="Capa_x0020_1" /><defs
     id="defs3687"><style
       type="text/css"
       id="style3689"><![CDATA[
    .fil1 {fill:#0E253F}
    .fil0 {fill:#14365B}
    .fil4 {fill:#FFD43B}
    .fil7 {fill:white}
    .fil2 {fill:white;fill-rule:nonzero}
    .fil5 {fill:#1A0000;fill-opacity:0.200000}
    .fil3 {fill:black;fill-opacity:0.301961}
    .fil6 {fill:black;fill-opacity:0.349020}
   ]]></style></defs><g
     id="Capa_x0020_1"><metadata
       id="CorelCorpID_0Corel-Layer" /><path
       style="fill:#14365b"
       inkscape:connector-curvature="0"
       id="path3694"
       d="m 640,-2 c 333,1 605,258 632,584 l -508,677 c -42,9 -85,13 -129,13 C 297,1271 22,1007 1,676 L 513,10 C 554,2 596,-2 640,-2 Z"
       class="fil0" /><path
       style="fill:#0e253f"
       inkscape:connector-curvature="0"
       id="path3696"
       d="M 568,44 C 593,27 616,11 640,-2 380,-3 143,155 45,399 11,484 -4,575 1,666 c 1,26 4,52 8,77 11,-23 23,-45 35,-65 12,-19 26,-52 44,-65 24,-16 47,-11 69,6 33,26 113,101 154,105 17,2 25,-10 22,-25 -4,-17 -23,-37 -47,-57 -40,-32 -86,-66 -100,-81 -17,-19 -21,-34 -16,-51 6,-28 34,-70 47,-92 10,-16 22,-33 34,-50 l 0,0 C 334,250 464,111 537,68 l 0,0 31,-24 z"
       class="fil1" /><path
       style="fill:#0e253f"
       inkscape:connector-curvature="0"
       id="path3698"
       d="m 706,1226 c -24,17 -48,33 -71,46 259,1 497,-157 594,-401 33,-82 49,-172 44,-268 -1,-25 -4,-51 -8,-77 -11,23 -22,45 -35,66 l -17,27 c -12,17 -32,58 -48,69 -23,16 -47,11 -68,-5 -34,-27 -114,-102 -155,-106 -17,-1 -25,11 -22,25 4,17 23,38 48,57 39,32 85,66 99,82 26,28 21,48 4,82 -57,121 -237,323 -334,379 l 0,0 -31,24 z"
       class="fil1" /><path
       style="fill:#ffffff;fill-rule:nonzero"
       inkscape:connector-curvature="0"
       id="path3700"
       d="m 1095,286 c -3,-4 -2,-10 2,-13 4,-3 10,-3 13,1 35,46 63,96 84,151 19,53 32,109 36,169 12,163 -44,316 -144,431 C 986,1140 842,1217 679,1228 515,1240 362,1183 247,1084 132,984 56,840 44,676 33,513 89,360 188,245 288,130 431,54 594,42 l 5,0 c 68,-5 134,3 197,20 65,18 127,47 182,86 4,3 5,9 2,13 -3,4 -9,5 -13,2 C 914,126 854,98 791,80 729,63 664,56 597,61 438,72 299,146 203,257 106,369 52,517 63,675 c 11,159 85,298 197,394 111,97 259,151 417,140 159,-11 298,-85 395,-196 96,-112 150,-260 139,-418 -4,-57 -16,-112 -35,-163 -20,-53 -48,-102 -81,-146 z"
       class="fil2" /><path
       style="fill:#000000;fill-opacity:0.30196102"
       inkscape:connector-curvature="0"
       id="path3702"
       d="m 324,510 0,0 c 2,118 35,198 148,233 22,7 44,11 66,12 43,4 67,2 108,2 63,1 147,23 142,95 1,-4 2,-8 2,-13 l 0,0 0,-1 c 0,0 0,-1 0,-2 l 0,0 0,-1 0,0 0,0 c 1,-1 1,-2 1,-3 l 0,0 0,-1 0,0 0,-1 0,0 0,0 0,-2 0,0 0,0 0,0 0,-1 0,0 0,0 0,-1 0,0 0,-1 0,0 0,0 0,-1 0,0 0,-1 0,0 -1,0 0,0 0,-1 0,0 0,-1 0,0 0,-1 0,0 0,0 0,0 0,-1 0,0 0,-1 0,0 0,0 0,-1 0,0 0,0 0,-1 0,0 0,-1 0,0 0,0 0,-1 0,0 -1,-1 0,0 0,-1 0,-1 0,0 0,0 0,-1 0,0 0,0 0,-1 0,0 0,-1 0,0 0,0 0,0 -1,-1 0,-1 0,-1 0,0 0,0 0,-1 0,-1 -1,0 0,-1 0,0 0,-1 0,-1 0,0 0,0 -1,-1 0,-1 0,0 0,-1 -1,-1 0,-1 0,0 0,0 0,0 0,-1 0,0 -1,-1 0,0 0,0 0,0 0,-1 0,-1 -1,0 0,0 0,-1 0,-1 0,-1 -1,0 0,-1 0,-1 -1,0 0,0 0,-1 0,-1 0,0 -1,0 0,-1 0,0 c 0,0 0,-1 -1,-1 l 0,0 0,-1 0,-1 -1,0 0,-1 -1,-1 0,0 0,-1 0,0 -1,-1 0,0 0,0 0,-1 -1,-1 0,0 0,0 -1,-1 0,0 0,0 0,0 -1,-1 0,-1 0,0 0,0 0,0 -1,-1 0,0 0,-1 0,0 -1,0 0,0 0,-1 0,0 -1,0 0,0 0,-1 0,0 -1,-1 0,0 0,0 0,0 -1,-1 0,0 0,-1 0,0 -1,0 0,0 c 0,-1 0,-1 -1,-1 l 0,0 c 0,-1 0,-1 -1,-2 l 0,0 c 0,0 -1,0 -1,-1 l 0,0 -1,-1 0,0 c 0,0 -1,-1 -1,-1 l 0,0 c -1,-1 -1,-1 -1,-1 l 0,0 c -1,-1 -1,-1 -2,-1 l 0,0 c 0,-1 0,-1 -1,-2 l 0,0 c 0,0 -1,0 -1,-1 l 0,0 c -1,0 -1,0 -1,-1 l 0,0 c -1,0 -1,-1 -2,-1 l 0,0 c 0,0 -1,-1 -1,-1 l 0,0 c 0,0 -1,-1 -1,-1 l 0,0 c -1,0 -1,-1 -2,-1 l 0,0 c 0,0 -1,-1 -1,-1 l 0,0 c -1,0 -1,-1 -2,-1 l 0,0 c 0,0 -1,-1 -1,-1 l 0,0 c -1,0 -1,-1 -2,-1 l 0,0 c 0,0 -1,-1 -1,-1 l 0,0 c -1,0 -1,-1 -2,-1 l 0,0 c 0,0 -1,-1 -1,-1 l 0,0 c -1,0 -1,-1 -2,-1 l 0,0 c 0,0 -1,-1 -1,-1 l 0,0 c -1,0 -1,0 -2,-1 l 0,0 c -1,0 -1,0 -2,-1 l 0,0 c 0,0 -1,0 -1,0 l 0,0 c -1,-1 -1,-1 -2,-1 l 0,0 c -1,-1 -1,-1 -2,-1 l 0,0 c 0,0 -1,-1 -2,-1 l 0,0 c 0,0 -1,0 -1,-1 l 0,0 c -1,0 -2,0 -2,0 l 0,0 c -1,-1 -1,-1 -2,-1 l 0,0 c -1,0 -1,-1 -2,-1 l 0,0 c -1,0 -1,0 -2,-1 l 0,0 c 0,0 -1,0 -2,0 l 0,0 c 0,-1 -1,-1 -2,-1 l 0,0 -2,-1 0,0 c 0,0 -1,0 -2,0 l 0,0 c 0,-1 -1,-1 -2,-1 l 0,0 c 0,0 -1,0 -2,-1 l 0,0 c -1,0 -1,0 -2,0 l 0,0 c -1,0 -1,0 -2,-1 l 0,0 c -1,0 -1,0 -2,0 l 0,0 c -1,0 -2,0 -2,-1 l 0,0 c -1,0 -2,0 -3,0 l 0,0 c 0,0 -1,0 -2,-1 l 0,0 -2,0 0,0 c -1,0 -2,0 -2,0 l 0,0 c -1,-1 -2,-1 -3,-1 l 0,0 c 0,0 -1,0 -2,0 l 0,0 c -1,0 -2,0 -2,-1 l 0,0 c -1,0 -2,0 -3,0 l 0,0 c 0,0 -1,0 -2,0 l 0,0 c -1,0 -2,0 -3,0 l 0,0 -2,-1 0,0 c -1,0 -2,0 -3,0 l 0,0 c 0,0 -1,0 -2,0 l 0,0 c -1,0 -2,0 -3,0 l 0,0 c 0,0 -1,0 -2,0 l 0,0 c -1,-1 -2,-1 -3,-1 l 0,0 c -1,0 -2,0 -2,0 l 0,0 c -1,0 -2,0 -3,0 l 0,0 c -1,0 -2,0 -3,0 l 0,0 c -1,0 -2,0 -3,0 l 0,0 -1,0 0,0 -2,0 0,0 -2,0 0,0 -2,0 0,0 -2,0 -2,0 0,0 -1,0 -2,0 0,0 -2,0 -2,0 0,0 -1,0 -2,0 -2,0 -1,0 -2,0 0,0 -1,0 0,0 -2,0 -2,0 0,0 -1,0 0,0 -2,0 0,0 -1,0 -2,0 -1,0 0,0 -2,0 0,0 -2,0 0,0 -1,0 0,0 -2,0 -1,0 -2,0 -1,0 0,0 -2,0 0,0 -1,0 -2,0 0,0 -1,0 0,0 -2,0 0,0 -1,0 -2,0 0,0 -2,0 -1,0 0,0 -2,0 0,0 -1,0 0,0 -2,0 0,0 -2,0 0,0 -1,0 0,0 -2,0 0,0 -1,0 0,0 -2,0 -2,0 0,0 -1,0 0,0 -2,0 0,0 -2,-1 0,0 -2,0 -1,0 0,0 -2,0 0,0 -2,0 0,0 -2,0 0,0 -2,0 0,0 -1,0 -2,0 0,0 -2,0 0,0 -2,-1 0,0 -2,0 0,0 -2,0 0,0 -2,0 0,0 -1,0 0,0 -1,0 0,0 -1,0 0,0 -1,0 0,0 -1,0 0,0 -1,-1 -1,0 0,0 -1,0 0,0 -2,0 0,0 -1,0 -1,0 0,0 -1,0 0,0 -1,0 -1,0 -1,-1 -2,0 0,0 -1,0 0,0 -1,0 -1,0 0,0 -1,0 c -1,-1 -2,-1 -3,-1 l -1,0 0,0 -1,0 -1,0 0,0 -1,-1 -1,0 -1,0 0,0 -1,0 -2,0 0,0 -1,-1 0,0 -1,0 0,0 -1,0 -1,0 0,0 -1,0 0,0 -1,-1 -1,0 -1,0 0,0 -1,0 0,0 -2,-1 -1,0 -1,0 0,0 -1,0 0,0 -1,-1 -1,0 -1,0 0,0 -1,0 0,0 -1,-1 -1,0 -1,0 -1,0 -1,-1 -1,0 0,0 -1,0 -1,0 -1,-1 -1,0 -1,0 0,0 -1,-1 -1,0 -1,0 c -2,-1 -3,-1 -5,-2 l -2,-1 c -1,0 -3,-1 -4,-1 l -1,0 c -2,-1 -4,-2 -5,-2 l -2,-1 c -1,-1 -2,-1 -4,-2 l -1,0 c -1,-1 -3,-2 -5,-2 l -1,-1 c -1,-1 -3,-1 -4,-2 l -1,-1 c -2,0 -3,-1 -5,-2 l -1,-1 c -1,0 -2,-1 -4,-2 l -1,-1 c -1,0 -3,-1 -4,-2 l -1,-1 c -1,-1 -3,-1 -4,-2 l -1,-1 c -2,-1 -3,-2 -4,-3 l -1,0 c -1,-1 -2,-2 -4,-3 l -1,-1 c -1,-1 -2,-2 -3,-3 l -1,-1 c -2,-1 -3,-2 -4,-3 l -1,-1 c -1,-1 -2,-2 -3,-2 l -1,-1 c -2,-2 -3,-3 -4,-4 l -1,-1 c -1,-1 -2,-2 -3,-3 l -1,-1 c -1,-1 -2,-2 -3,-3 l -1,-1 c -1,-1 -2,-2 -3,-3 l -1,-1 c -1,-2 -2,-3 -3,-4 l -1,-1 c -1,-1 -2,-2 -3,-3 l -1,-2 c -1,-1 -1,-2 -2,-3 0,0 -1,0 -1,-1 -1,-1 -2,-2 -3,-4 l -1,-1 c -1,-1 -1,-2 -2,-3 l -1,-1 c -1,-2 -1,-3 -2,-4 l -1,-2 c -1,-1 -1,-2 -2,-3 l -1,-2 c -1,-1 -2,-2 -2,-4 -1,0 -1,-1 -1,-1 -1,-1 -1,-2 -2,-3 l -1,-2 c 0,-1 -1,-2 -1,-3 -1,-1 -1,-2 -2,-3 0,-1 -1,-2 -1,-3 l -1,-2 c 0,-1 -1,-2 -1,-3 -1,-1 -1,-1 -1,-2 -1,-1 -1,-2 -2,-4 0,0 0,-1 0,-2 -1,-1 -1,-2 -1,-2 -1,-1 -1,-2 -1,-2 -1,-2 -1,-3 -2,-5 0,0 0,-1 0,-2 -1,-1 -1,-2 -1,-2 0,-1 -1,-2 -1,-3 0,-1 -1,-2 -1,-4 0,-1 0,-1 -1,-2 0,-1 0,-2 0,-3 -1,-1 -1,-1 -1,-2 0,-1 -1,-3 -1,-4 0,-1 0,-2 0,-3 -1,-1 -1,-1 -1,-2 0,-1 0,-2 0,-3 -1,-1 -1,-2 -1,-3 0,-1 0,-2 0,-3 -1,-1 -1,-2 -1,-3 0,-1 0,-2 0,-3 0,0 0,-1 0,-2 -1,-1 -1,-2 -1,-3 0,-2 0,-3 0,-4 0,-1 0,-1 0,-2 0,-1 0,-2 0,-3 -1,-1 -1,-2 -1,-2 l 0,0 z m -29,663 c -12,-17 -9,-34 0,-52 3,-5 7,-10 11,-15 4,-6 8,-11 13,-17 29,-32 72,-93 100,-115 l 1,-1 0,0 0,0 0,-1 1,0 0,0 1,-1 0,0 1,0 0,0 0,0 1,-1 0,0 0,0 1,-1 0,0 1,0 0,0 1,-1 0,0 0,0 0,0 1,0 c 0,0 1,-1 1,-1 l 0,0 1,0 0,0 1,-1 0,0 0,0 0,0 1,0 0,0 1,0 0,0 c 0,-1 1,-1 1,-1 l 0,0 1,0 0,0 1,0 0,0 c 0,-1 1,-1 2,-1 l 0,0 c 1,0 1,0 2,0 l 0,0 1,0 0,0 c 8,-1 16,1 24,6 l 0,0 c 13,7 26,19 43,33 49,38 121,88 213,77 153,-18 290,-194 142,-367 l 0,1 1,0 0,0 0,0 0,0 0,0 0,0 0,0 0,0 0,0 0,1 0,0 0,0 0,0 0,0 c 1,1 1,1 2,2 l 0,0 c 6,10 11,20 16,31 l 0,1 c 5,11 8,22 11,34 l 0,0 c 0,0 0,1 0,2 1,1 1,2 1,3 l 0,0 c 0,1 0,2 1,3 l 0,0 c 0,1 0,2 0,3 l 0,0 0,1 0,0 c 1,1 1,2 1,3 l 0,0 c 0,2 0,3 0,5 l 0,0 c 1,1 1,3 1,4 l 0,0 c 0,1 0,2 0,3 l 0,0 0,2 0,2 0,0 1,1 0,0 c 0,1 0,2 0,3 l 0,0 0,2 c 0,1 0,2 0,3 l 0,0 c 0,1 0,2 0,3 l 0,0 c 0,1 0,3 0,4 l 0,2 0,0 0,1 0,0 0,2 0,1 0,2 0,0 0,1 0,0 0,2 -1,1 0,2 0,1 0,2 0,2 0,1 0,2 -1,1 0,2 0,1 0,2 0,1 -1,2 0,1 0,2 0,0 0,1 0,0 -1,2 0,1 0,2 0,0 0,1 0,0 -1,2 0,0 0,1 0,0 0,2 0,0 -1,1 0,0 0,2 0,0 0,1 0,0 -1,2 0,0 c 0,1 0,2 -1,3 l 0,0 c 0,1 0,2 -1,3 l 0,0 c 0,1 0,2 -1,3 l 0,0 c 0,2 -1,4 -2,7 0,1 0,2 -1,3 0,1 0,2 -1,3 0,1 -1,2 -1,3 -1,1 -1,2 -1,3 -1,2 -2,4 -3,6 0,1 -1,2 -1,3 l 0,0 c -1,1 -1,2 -2,3 0,1 -1,2 -1,3 l 0,0 c -1,2 -2,4 -4,6 -1,2 -2,4 -3,6 l 0,0 c 0,1 -1,2 -2,3 l 0,0 c 0,1 -1,2 -1,3 -1,1 -2,2 -2,3 -1,2 -3,4 -4,5 -1,1 -1,2 -2,3 l 0,0 c -1,1 -1,2 -2,3 -1,1 -1,2 -2,3 -1,0 -2,1 -2,2 l 0,0 c -1,1 -2,2 -2,3 -1,1 -2,2 -3,2 l 0,0 c 0,1 -1,2 -2,3 l 0,0 c -1,1 -2,2 -2,3 -1,0 -2,1 -3,2 l 0,0 c 0,1 -1,2 -2,3 l 0,0 c -1,0 -2,1 -3,2 0,1 -1,2 -2,2 -1,1 -2,2 -3,3 0,1 -1,1 -2,2 -1,1 -2,2 -3,2 -1,1 -2,2 -3,3 l 0,0 c 0,0 -1,1 -2,2 -1,1 -2,1 -3,2 l 0,0 c -1,1 -2,1 -3,2 -1,1 -2,2 -3,2 -1,1 -2,2 -3,2 -1,1 -2,2 -3,2 l 0,0 c -1,1 -2,2 -3,2 -1,1 -2,1 -3,2 l 0,0 c -1,1 -2,1 -3,2 l 0,0 c -1,1 -2,1 -3,2 -1,0 -2,1 -3,2 -1,0 -2,1 -3,1 l 0,0 c -2,1 -3,1 -4,2 l 0,0 c -1,1 -2,1 -3,2 l 0,0 c -1,0 -2,1 -3,1 -2,1 -3,1 -4,2 l 0,0 c -1,0 -2,1 -3,1 l 0,0 c -2,1 -3,1 -4,2 l 0,0 c -1,0 -2,1 -3,1 l 0,0 c -2,0 -3,1 -4,1 l 0,0 c -1,1 -2,1 -4,2 -1,0 -2,0 -3,1 l 0,0 c -2,0 -3,1 -4,1 l 0,0 c -1,0 -3,1 -4,1 l 0,0 c -1,0 -2,1 -4,1 l 0,0 c -1,1 -3,1 -4,1 l 0,0 c -2,1 -3,1 -5,1 l 0,0 c -2,1 -3,1 -5,1 l 0,0 c -1,1 -3,1 -4,1 l 0,0 c -2,1 -3,1 -5,1 l 0,0 c -1,0 -3,0 -4,1 l 0,0 c -2,0 -3,0 -4,0 l 0,0 c -2,0 -3,0 -5,1 l 0,0 c -1,0 -3,0 -4,0 -1,0 -3,0 -4,0 -2,0 -3,0 -5,0 -1,0 -2,0 -4,0 -1,0 -2,0 -4,0 -1,0 -3,0 -4,0 -1,0 -3,0 -4,0 -1,0 -3,0 -4,0 -1,-1 -3,-1 -4,-1 -1,0 -3,0 -4,0 l 0,0 c -1,-1 -2,-1 -4,-1 l 0,0 c -1,0 -2,0 -4,-1 -1,0 -2,0 -3,0 -2,-1 -3,-1 -4,-1 -1,0 -3,-1 -4,-1 -1,0 -2,-1 -4,-1 l 0,0 c -1,0 -2,-1 -3,-1 -1,0 -3,-1 -4,-1 -1,-1 -2,-1 -4,-1 -1,-1 -2,-1 -3,-2 -1,0 -2,-1 -4,-1 -1,0 -2,-1 -3,-1 -1,-1 -3,-1 -4,-2 -1,0 -2,-1 -3,-1 -1,-1 -2,-1 -4,-2 l 0,0 c -1,0 -2,-1 -3,-2 -1,0 -2,-1 -3,-1 -2,-1 -3,-1 -4,-2 l 0,0 c -1,-1 -2,-1 -3,-2 l 0,0 c -1,0 -2,-1 -3,-2 l 0,0 c -2,0 -3,-1 -4,-1 -1,-1 -2,-2 -3,-2 -1,-1 -2,-2 -3,-2 -1,-1 -2,-2 -4,-2 -2,-2 -4,-3 -6,-4 -1,-1 -2,-2 -3,-2 -1,-1 -2,-2 -3,-3 l 0,0 c -1,0 -2,-1 -4,-2 -1,-1 -2,-1 -3,-2 l 0,0 c -1,-1 -2,-2 -3,-2 l 0,0 c -1,-1 -2,-2 -3,-3 l 0,0 c -1,0 -2,-1 -3,-2 l 0,0 c -2,-1 -4,-3 -6,-4 l -3,-3 0,0 c -3,-2 -6,-5 -9,-7 l 0,0 c -2,-2 -4,-3 -6,-5 l -1,0 c -2,-1 -4,-3 -6,-5 l 0,0 c -3,-2 -6,-5 -9,-7 l -2,-2 0,0 -3,-3 0,0 c -30,-26 -61,-59 -99,-21 l -1,1 0,0 c -1,1 -1,1 -2,1 l 0,0 -1,1 0,0 -1,1 0,0 -1,1 0,0 -1,2 0,0 -1,1 0,0 -1,1 0,0 -1,1 0,0 -1,1 0,0 -1,1 0,0 -13,17 0,0 -102,127 -1,1 -6,7 c -2,3 -3,5 -5,7 -1,1 -1,2 -2,4 0,0 0,0 0,0 0,0 0,0 0,0 -8,16 -6,34 5,48 l 13,12 13,9 z M 466,579 c -49,-85 31,-170 110,-125 46,26 79,69 121,92 63,34 150,42 215,-84 l 0,0 0,0 -1,1 0,0 0,0 0,1 -1,0 0,1 0,0 -1,0 0,1 0,0 -1,1 0,0 0,0 -1,1 0,0 0,1 -1,0 0,0 0,1 -2,2 0,1 0,0 -1,0 -1,1 0,1 0,0 0,0 -1,1 0,0 0,0 0,1 -1,0 0,0 0,1 0,0 -1,0 0,1 0,0 0,0 -1,0 0,1 0,0 0,0 -1,1 0,0 0,0 0,0 0,0 -1,1 0,0 0,0 0,1 0,0 -1,0 0,0 0,1 0,0 0,0 0,0 -1,0 0,0 0,1 0,0 0,0 0,0 -1,1 0,0 0,0 0,0 0,0 0,0 -1,1 0,0 0,0 0,0 0,0 0,0 0,0 0,0 -1,1 c -67,61 -136,50 -202,6 -1,-1 -2,-1 -3,-2 -7,-5 -12,-10 -16,-14 -9,-7 -16,-12 -27,-20 -3,-3 -5,-5 -8,-7 l 0,0 C 596,420 567,389 519,397 l 0,0 c -1,0 -1,1 -2,1 l -1,0 c 0,0 -1,0 -2,0 l -1,1 -1,0 c -1,0 -2,0 -3,0 l -1,1 -1,0 -2,1 -1,0 -1,0 -1,1 -2,0 -1,1 -1,0 -1,1 -2,0 -1,1 -1,0 -1,1 -1,0 -2,1 -1,1 -1,0 -1,1 -1,0 -1,1 -1,1 -2,0 -1,1 -1,1 -1,0 -1,1 0,0 -1,1 -1,1 -1,0 0,0 -1,1 0,0 -1,1 -1,1 -1,0 0,0 -1,1 0,0 -1,1 -1,1 -1,1 -1,1 0,0 -1,0 0,0 -1,1 -1,1 -1,1 0,0 0,1 -1,1 0,0 c -2,1 -3,3 -4,5 l -1,1 -1,1 0,0 -1,1 -1,1 c 0,0 -1,1 -1,2 -1,1 -1,2 -2,3 l 0,0 c -1,0 -1,1 -2,2 l 0,0 c 0,1 -1,2 -1,3 -1,1 -2,2 -2,3 l 0,0 c -2,4 -4,9 -6,13 0,1 -1,2 -1,2 l 0,0 0,2 0,0 -1,1 c 0,1 0,1 0,2 l -1,1 0,2 0,0 0,1 -1,1 0,0 0,1 0,1 -1,2 0,0 0,1 0,0 0,1 0,0 0,2 0,0 0,1 -1,1 0,0 0,1 0,0 0,2 0,1 0,1 0,1 0,2 0,1 0,1 0,0 -1,2 0,1 0,1 0,0 0,1 0,0 0,2 0,1 0,0 1,1 0,2 0,0 0,1 0,1 0,2 0,1 0,1 0,2 1,1 0,0 0,1 0,2 0,1 1,1 0,2 0,1 0,1 1,2 0,1 0,1 1,1 0,0 0,1 0,1 1,1 0,1 0,0 0,1 0,0 0,0 1,1 0,1 0,0 0,1 0,0 0,1 0,0 1,0 0,0 0,1 0,0 0,1 1,1 0,0 0,1 0,0 0,0 0,0 1,1 0,0 0,1 0,0 0,1 1,1 0,0 1,1 0,1 0,1 0,0 1,0 0,1 0,0 1,1 0,0 0,1 0,0 1,1 0,0 0,1 1,0 0,1 0,0 0,1 0,0 1,1 0,0 0,0 1,1 0,0 0,1 0,0 1,0 0,1 0,0 1,1 0,0 0,0 1,1 0,0 0,1 0,0 1,0 0,1 1,1 0,0 0,0 1,1 0,1 0,0 1,0 0,1 0,0 1,1 0,0 1,1 0,0 1,1 0,1 1,0 1,1 0,0 0,1 0,0 0,0 0,0 0,0 0,0 1,0 0,0 0,0 0,1 0,0 0,0 0,0 0,0 0,0 1,0 0,0 0,0 0,0 0,1 0,0 0,0 0,0 0,0 0,0 1,0 0,0 0,0 0,0 0,0 0,0 0,0 0,0 0,0 0,1 0,0 0,0 0,0 0,0 0,0 1,0 0,0 0,0 0,0 0,0 0,0 0,0 0,0 0,0 0,1 0,0 0,0 0,0 0,0 0,0 1,0 0,0 0,0 0,0 z"
       class="fil3" /><path
       style="fill:#ffd43b"
       inkscape:connector-curvature="0"
       id="path3704"
       d="m 279,1162 c -25,-17 -27,-47 -8,-69 L 393,941 c 22,-26 47,-38 77,-17 13,9 26,20 39,31 65,52 130,105 230,78 82,-22 134,-82 152,-151 8,-32 9,-65 2,-97 -6,-33 -21,-64 -44,-91 -113,-119 -222,-56 -343,-92 -17,-5 -33,-15 -45,-28 -12,-12 -21,-28 -26,-46 -7,-28 -3,-57 11,-80 13,-23 35,-41 63,-49 55,-14 85,19 126,53 13,10 30,23 47,37 68,54 148,65 209,-1 7,-6 41,-54 45,-56 6,-3 14,4 18,8 15,14 36,9 44,-11 l 25,-102 c 4,-20 11,-38 -5,-51 -2,-3 -4,-5 -7,-7 l 23,-29 41,2 c 6,0 11,-5 12,-11 0,-6 -5,-11 -11,-11 l -38,-2 -10,-37 c -2,-6 -8,-9 -14,-8 -6,2 -10,8 -8,14 l 11,39 -5,7 0,0 -18,23 c -2,-2 -4,-3 -6,-5 -9,-8 -20,-9 -31,-6 -7,2 -13,6 -19,9 l -94,47 c -16,8 -23,29 -11,44 10,11 26,10 11,29 l -21,27 c -22,29 -44,24 -67,9 -16,-11 -31,-24 -46,-36 -67,-53 -127,-101 -236,-71 -57,15 -94,44 -121,91 -68,118 -9,271 121,311 22,6 43,10 66,12 43,3 67,2 107,2 59,0 98,19 120,45 11,13 18,27 21,43 4,16 3,32 -1,48 -8,34 -34,64 -75,75 -48,12 -92,-23 -135,-58 -24,-20 -49,-41 -77,-55 -29,-15 -60,-21 -91,-15 -18,3 -36,11 -53,23 -29,21 -51,55 -73,82 -25,31 -116,134 -125,163 -3,10 -5,22 -5,33 0,61 49,111 110,111 25,0 47,-8 65,-21 l 0,0 1,-1 0,0 c -13,-6 -19,-10 -31,-18 -7,-4 -13,-8 -19,-12 z M 929,327 c -9,1 -16,-7 -17,-16 0,-9 7,-17 16,-17 10,0 17,7 18,16 0,9 -7,17 -17,17 z"
       class="fil4" /><path
       style="fill:#1a0000;fill-opacity:0.2"
       inkscape:connector-curvature="0"
       id="path3706"
       d="m 716,1016 c -72,19 -126,-2 -175,-36 55,42 114,75 198,53 82,-22 134,-82 152,-151 8,-32 9,-65 2,-97 -5,-25 -15,-49 -30,-72 -4,-6 -9,-12 -14,-19 -14,-16 -30,-30 -49,-42 10,8 18,16 26,25 23,27 37,58 44,91 7,32 6,65 -2,97 -18,69 -70,129 -152,151 z M 913,419 c -48,66 -105,133 -198,92 24,14 50,22 75,22 36,1 71,-12 101,-45 0,0 0,0 0,0 0,0 0,0 0,0 0,0 0,0 0,0 3,-3 12,-14 20,-25 11,-14 23,-30 25,-31 6,-3 13,4 18,8 15,14 36,9 44,-11 l 19,-80 c 1,-3 -31,89 -64,62 -13,-10 -28,-7 -40,8 z M 435,528 c -7,-28 -3,-57 11,-80 13,-23 35,-41 63,-49 39,-10 66,4 93,25 -59,-69 -143,-50 -177,5 -30,46 -22,115 47,156 -2,-2 -4,-4 -6,-6 -2,-1 -3,-3 -5,-5 -12,-12 -21,-28 -26,-46 z m 570,-287 -11,15 17,13 12,-14 c -5,1 -16,-7 -18,-14 z m -739,859 c 1,-2 3,-4 5,-6 l 6,-8 116,-145 c 20,-24 44,-37 71,-20 -6,-5 -11,-9 -17,-14 -30,-21 -56,-9 -77,17 l -114,142 -8,11 c -1,1 -2,2 -3,3 -14,19 -12,42 3,59 3,2 5,4 8,7 1,0 2,1 3,1 5,4 11,9 17,13 -19,-16 -23,-40 -10,-60 z"
       class="fil5" /><path
       style="fill:#000000;fill-opacity:0.34902003"
       inkscape:connector-curvature="0"
       id="path3708"
       d="m 387,349 c 28,13 42,20 64,36 3,-24 -3,-47 -11,-71 -21,9 -38,21 -53,35 z m 312,104 c 26,-5 51,-18 70,-36 0,0 0,0 0,0 -4,-2 -8,-4 -13,-7 -13,-9 -25,-19 -37,-29 -3,30 -9,48 -20,72 z m -52,266 c 23,0 42,3 59,8 -1,-4 -3,-7 -4,-10 -9,-22 -11,-39 -13,-62 -16,13 -29,30 -37,49 -3,5 -5,10 -7,15 1,0 2,0 2,0 z m -95,-1 c 23,1 41,1 60,1 -12,-23 -17,-41 -21,-68 -19,19 -33,41 -39,67 z m -78,-13 c 13,4 26,7 38,9 -1,-5 -2,-9 -3,-13 -4,-21 -4,-38 -2,-59 -20,12 -36,29 -48,48 -2,3 -3,5 -5,8 7,2 13,5 20,7 z M 325,513 c 26,-12 44,-16 70,-19 -18,-20 -41,-33 -66,-41 -4,19 -5,38 -5,57 0,1 1,2 1,3 z m 13,-88 c 28,1 43,0 69,6 -8,-24 -20,-42 -39,-60 -5,7 -11,15 -15,23 -6,11 -11,21 -15,31 z m -49,586 c -4,-26 -18,-51 -34,-70 -14,16 -27,33 -41,49 13,2 27,3 38,6 13,4 24,8 37,15 z m -20,-87 14,-17 c 8,-10 17,-21 25,-32 16,19 32,45 36,70 -24,-12 -44,-18 -75,-21 z m 253,-94 c -3,32 -8,50 -20,74 27,-5 51,-18 70,-36 -16,-13 -32,-27 -50,-38 l 0,0 z m 70,54 c -1,31 -6,49 -17,74 27,-6 50,-20 69,-39 -18,-9 -35,-22 -52,-35 z m 194,-24 c -6,19 -18,37 -35,51 30,1 53,4 77,14 -5,-26 -20,-48 -42,-65 z M 627,401 c 27,-4 53,-18 73,-35 -17,-13 -34,-26 -52,-37 -3,30 -9,48 -21,72 z"
       class="fil6" /><path
       style="fill:#ffffff"
       inkscape:connector-curvature="0"
       id="path3710"
       d="m 1707,560 c 0,35 -13,63 -39,83 -26,20 -59,30 -99,30 -32,0 -62,-9 -92,-26 -14,-9 -27,-22 -36,-38 -9,-17 -14,-36 -14,-57 l 66,-3 c 0,18 8,33 24,44 16,10 34,15 53,15 44,0 66,-15 66,-46 0,-25 -15,-40 -45,-44 l -60,-6 c -31,-5 -55,-16 -73,-33 -17,-17 -26,-42 -26,-74 0,-32 12,-58 38,-79 25,-21 57,-32 96,-32 39,0 71,10 94,30 24,20 36,45 36,76 l -65,3 c -6,-30 -26,-45 -61,-45 -22,0 -38,4 -50,13 -12,9 -18,20 -18,32 0,13 4,23 13,30 9,7 19,11 32,13 l 60,6 c 66,9 100,45 100,108 z m 1238,110 -82,0 c -73,0 -89,-21 -89,-91 l 0,-281 73,0 0,268 c 0,22 7,39 31,39 l 88,0 -21,65 z m 355,0 -76,0 -21,-64 -116,0 -21,64 -75,0 114,-341 c 5,-12 12,-20 18,-24 6,-5 14,-7 24,-7 9,0 17,2 22,6 6,4 12,13 16,25 l 115,341 z m -114,-125 -39,-148 -42,148 81,0 z m -1265,16 61,-1 c 0,3 0,8 -1,15 0,8 0,13 -1,15 0,3 0,7 -1,13 -1,5 -1,9 -2,12 -1,2 -2,6 -4,10 -6,18 -23,33 -51,43 -18,6 -36,9 -56,9 -19,0 -36,-3 -52,-9 -16,-6 -28,-14 -37,-24 -21,-22 -31,-62 -31,-122 0,-59 10,-100 31,-121 9,-10 21,-18 37,-24 16,-7 33,-10 52,-10 38,0 66,10 86,28 19,19 29,45 29,79 l -61,0 c 0,-15 -4,-27 -12,-34 -8,-8 -22,-12 -43,-12 -20,0 -34,7 -41,20 -7,13 -10,32 -10,58 l 0,27 c 0,41 8,67 24,76 7,5 17,7 29,7 12,0 21,-1 29,-3 7,-3 13,-6 16,-12 3,-6 5,-11 6,-17 2,-5 2,-13 3,-23 z m 153,-304 c 16,0 27,3 32,8 5,5 7,16 7,32 0,16 -2,27 -8,32 -5,5 -15,7 -31,7 -17,0 -27,-2 -32,-8 -5,-5 -8,-15 -8,-31 0,-17 3,-27 8,-32 5,-5 15,-8 32,-8 z m 33,413 -68,0 0,-288 68,0 0,288 z"
       class="fil7" /><path
       style="fill:#ffd43b"
       inkscape:connector-curvature="0"
       id="path3712"
       d="m 2410,330 c 22,21 32,53 32,94 0,42 -10,73 -32,95 -21,21 -51,32 -91,32 l -71,0 0,119 -73,0 0,-372 144,0 c 40,0 70,10 91,32 z m -40,94 c 0,-41 -18,-62 -54,-62 l -68,0 0,123 68,0 c 17,0 31,-4 40,-14 9,-9 14,-25 14,-47 z m 355,-53 -113,332 c -5,15 -12,27 -21,36 -13,13 -33,20 -58,20 l -48,0 0,-61 37,0 c 10,0 17,-1 22,-5 4,-3 8,-10 12,-19 l 5,-15 -90,-288 72,0 53,208 58,-208 71,0 z"
       class="fil4" /><path
       style="fill:#ffffff"
       inkscape:connector-curvature="0"
       id="path3714"
       d="m 2688.045,1026 c 0,-2 -1.4017,-4 -1.4017,-7 0,-4 1.4017,-7 1.4017,-9 1.4018,-3 4.2053,-7 9.8121,-12 9.8121,-12 25.2311,-27 46.2569,-44 16.8207,-14 28.0344,-26 36.4448,-35 7.0086,-8 11.2138,-17 11.2138,-27 0,-13 -9.8121,-20 -32.2396,-20 -9.8121,0 -21.0259,1 -33.6414,3 -11.2138,2 -19.6241,4 -26.6327,7 -2.8035,-4 -4.2052,-10 -4.2052,-17 0,-2 2.8034,-5 9.812,-7 7.0087,-3 16.8207,-5 28.0345,-6 11.2138,-2 22.4276,-3 35.0431,-3 23.8293,0 39.2483,4 47.6586,10 9.8121,7 14.0173,17 14.0173,30 0,9 -2.8035,17 -7.0087,25 -4.2052,8 -11.2138,15 -18.2224,22 -7.0086,7 -16.8207,16 -29.4362,27 -19.6241,16 -33.6414,30 -43.4534,41 l 56.0689,0 c 8.4104,0 18.2224,0 28.0345,-1 9.8121,-1 16.8207,-1 19.6241,-1 l 0,19 c -1.4017,4 -2.8034,5 -7.0086,5 z M 2027.8333,818 c 14.0172,0 23.8292,1 29.4362,5 7.0086,3 9.812,7 9.812,11 0,5 -1.4017,10 -5.6069,15 -8.4103,-5 -16.8207,-8 -26.6327,-8 -9.8121,0 -19.6242,2 -26.6328,7 -8.4103,5 -14.0172,14 -19.624,27 -4.2053,13 -7.0087,32 -7.0087,56 0,20 1.4017,35 5.6069,45 2.8034,11 7.0086,18 14.0172,22 5.6069,4 12.6155,6 22.4276,6 7.0086,0 14.0172,-1 21.0258,-3 7.0086,-2 12.6156,-4 16.8207,-6 2.8035,5 5.6069,9 5.6069,14 0,6 -5.6069,11 -15.419,15 -9.812,4 -21.0258,6 -36.4448,6 -15.4189,0 -26.6326,-2 -36.4447,-7 -9.8121,-4 -18.2225,-14 -23.8293,-28 -5.6069,-14 -8.4104,-35 -8.4104,-62 0,-32 4.2051,-56 12.6155,-73 7.0086,-17 16.8207,-28 29.4363,-34 11.2137,-5 25.2309,-8 39.2482,-8 z m 189.2326,202 c -18.2224,7 -39.2482,10 -61.6758,10 -16.8207,0 -29.4362,-2 -37.8465,-5 -8.4104,-4 -15.419,-9 -18.2225,-16 -4.2051,-7 -5.6068,-16 -5.6068,-28 l 0,-96 c 0,-2 0,-3 1.4017,-4 1.4018,-1 4.2051,-1 9.8121,-1 l 23.8292,0 0,103 c 0,10 1.4018,17 5.607,21 2.8034,4 11.2137,6 22.4276,6 9.812,0 19.624,-2 26.6326,-6 l 0,-119 c 0,-2 1.4018,-3 2.8035,-4 0,-1 4.2052,-1 8.4104,-1 l 22.4275,0 z m 39.2483,-199 c 0,-3 0,-6 1.4018,-7 2.8034,-2 5.6068,-3 9.812,-3 4.2052,0 11.2138,-1 21.0259,-1 l 0,77 c 12.6154,-7 28.0344,-10 44.8551,-10 16.8207,0 29.4362,4 37.8465,13 8.4104,9 12.6156,24 12.6156,45 0,38 -7.0087,63 -22.4277,76 -15.4189,13 -35.043,19 -57.4706,19 -22.4275,0 -37.8465,-3 -47.6586,-9 z m 32.2397,184 c 4.2051,3 11.2137,4 19.6241,4 9.812,0 19.6241,-5 26.6327,-14 8.4104,-10 12.6155,-28 12.6155,-55 0,-15 -2.8034,-26 -7.0086,-32 -5.6069,-7 -12.6155,-10 -22.4276,-10 -11.2137,0 -21.0258,3 -29.4361,9 z m 238.293,-77 c 0,44 -1.4018,74 -2.8035,92 -15.419,7 -35.0431,10 -60.2741,10 -11.2138,0 -21.0258,-1 -29.4362,-3 -8.4103,-2 -14.0172,-6 -19.6241,-13 -4.2052,-6 -7.0087,-16 -7.0087,-29 0,-18 4.2052,-31 14.0173,-38 11.2138,-7 23.8293,-10 40.6499,-10 12.6156,0 23.8293,1 30.838,4 l 0,-23 c 0,-7 -2.8034,-12 -7.0087,-14 -4.2051,-3 -9.8119,-4 -19.624,-4 -21.0259,0 -39.2483,2 -54.6673,7 -2.8034,-4 -4.2052,-9 -4.2052,-14 0,-4 1.4018,-7 4.2052,-8 4.2052,-2 12.6155,-4 23.8293,-6 12.6155,-1 25.2311,-2 39.2483,-2 18.2224,0 30.8379,3 39.2483,8 8.4103,6 12.6155,15 12.6155,28 z m -33.6414,30 c -5.6069,-2 -12.6155,-3 -19.6241,-3 -9.8121,0 -18.2225,2 -23.8293,6 -5.6069,4 -8.4104,12 -8.4104,24 0,10 2.8035,17 7.0086,20 5.6069,3 12.6156,5 21.0259,5 9.812,0 16.8206,-1 22.4276,-5 0,-6 1.4017,-22 1.4017,-47 z m 367.2516,-19 c 0,-30 5.6068,-52 16.8207,-67 12.6154,-15 32.2396,-23 57.4706,-23 26.6328,0 44.8552,7 56.0689,20 12.6156,14 18.2225,35 18.2225,63 0,33 -5.6069,58 -16.8207,73 -11.2138,16 -30.8379,24 -58.8724,24 -28.0345,0 -46.2568,-7 -57.4707,-22 -11.2138,-14 -15.4189,-37 -15.4189,-68 z m 35.043,2 c 0,16 1.4018,29 4.2052,39 1.4018,10 5.6069,17 11.2138,21 5.6069,4 12.6155,6 22.4276,6 15.419,0 25.231,-6 30.838,-17 7.0086,-12 9.8119,-32 9.8119,-58 0,-21 -2.8033,-37 -8.4103,-47 -5.6069,-10 -15.419,-15 -29.4362,-15 -14.0172,0 -25.231,6 -30.8379,18 -7.0086,12 -9.8121,29 -9.8121,53 z m 190.6345,-67 c -14.0172,1 -32.2397,4 -46.2569,6 -2.8035,-4 -5.6069,-11 -5.6069,-18 0,-1 5.6069,-3 16.8206,-5 9.8121,-2 22.4277,-4 35.0432,-6 12.6155,-2 22.4275,-3 26.6327,-3 4.2052,0 7.0087,0 9.8121,1 0,53 -1.4018,108 -1.4018,161 0,3 2.8035,14 -1.4016,16 0,0 -2.8035,1 -4.2052,1 -8.4104,0 -23.8294,-1 -28.0345,-1 z M 3302,848 l 0,9 c 0,5 0,10 -1.4017,12 -33.6414,47 -50.462,96 -50.462,149 0,10 -7.0087,8 -21.026,8 l -14.0172,0 c 1.4018,-56 14.0172,-102 46.2569,-154 -21.0258,1 -54.6672,1 -96.7189,1 -5.6069,0 -5.6069,-10 -5.6069,-24 z"
       class="fil7"
       sodipodi:nodetypes="csccccssccsccsssssccssccscscscsccsccsscssscssccscsccsssscscscscsccsssccssssscscscscsccscsscscscscscsccscsscssscsccscscscscsscsscssscsccscsscscscccscssccscc" /></g></svg>