<?xml version="1.0" encoding="UTF-8"?>
<!DOCTYPE svg PUBLIC "-//W3C//DTD SVG 1.1//EN" "http://www.w3.org/Graphics/SVG/1.1/DTD/svg11.dtd">
<!-- Creator: CorelDRAW X7 -->
<svg xmlns="http://www.w3.org/2000/svg" xml:space="preserve" width="11.3452mm" height="17.1026mm" version="1.1" style="shape-rendering:geometricPrecision; text-rendering:geometricPrecision; image-rendering:optimizeQuality; fill-rule:evenodd; clip-rule:evenodd"
viewBox="0 0 1135 1710"
 xmlns:xlink="http://www.w3.org/1999/xlink">
 <defs>
  <style type="text/css">
   <![CDATA[
    .fil1 {fill:#FFD43B;fill-rule:nonzero}
    .fil0 {fill:black;fill-rule:nonzero;fill-opacity:0.400000}
    .fil2 {fill:black;fill-opacity:0.501961}
   ]]>
  </style>
 </defs>
 <g id="Capa_x0020_1">
  <metadata id="CorelCorpID_0Corel-Layer"/>
  <g id="_602865501136">
   <path class="fil0" d="M567 -1l-2 0c-186,0 -338,147 -353,334l0 1016 0 0c1,196 -27,318 -213,362l1137 0c-186,-44 -214,-166 -213,-362l-1 0 0 -1016c-14,-187 -167,-334 -353,-334l-2 0z"/>
   <path class="fil1" d="M791 1432l0 18c0,183 90,251 127,261l-351 0 -1 0 -1 0 -350 0c36,-10 127,-78 127,-261l-1 -18c0,-51 0,-174 0,-174l225 -154 225 154c0,0 0,123 0,174z"/>
   <path class="fil2" d="M791 1363c-1,1 -2,1 -3,1 -7,0 -13,-7 -13,-15 0,-7 6,-14 13,-14 1,0 2,0 3,0l0 28zm68 348l-28 0 0 -1c0,-7 6,-14 14,-14 8,0 14,7 14,14l0 1zm-112 0l-27 0 0 -1c0,-7 6,-14 14,-14 7,0 13,7 13,14l0 1zm-111 0l-28 0 0 -1c0,-7 6,-14 14,-14 8,0 14,7 14,14l0 1zm-112 0l-28 0 0 -1c0,-7 6,-14 14,-14l0 0 0 0c8,0 14,7 14,14l0 1zm-112 0l-27 0 0 -1c0,-7 6,-14 13,-14 8,0 14,7 14,14l0 1zm-111 0l-28 0 0 -1c0,-7 6,-14 14,-14 8,0 14,7 14,14l0 1zm493 -205l0 5c-1,1 -3,1 -6,1 -7,0 -13,-6 -13,-14 0,-8 6,-14 13,-14 2,0 3,0 4,0l0 0 0 1c0,2 0,4 0,6l0 0 0 1 0 1 0 0 0 1 0 0 1 5 0 0 0 1 0 1 0 0 0 1 0 0 0 0 0 1 0 1 1 0 0 1 0 0 0 1zm-456 6l0 -1 0 -1 0 -4 1 -1 0 0 0 -1 0 0 0 0 0 -1 0 0 0 -1 0 0 0 -1 0 0 0 -2 0 0 0 -1 0 0 1 -3 0 -1 0 0 0 -1 0 -1 0 -1 0 0 0 -5 0 -1 0 0 0 -1c1,0 1,0 2,0 8,0 14,6 14,14 0,8 -6,14 -14,14 -2,0 -3,0 -4,0zm166 -365l20 -14 0 1c0,8 -6,14 -14,14l0 0 0 0c-2,0 -4,-1 -6,-1zm104 -14l20 14c-2,0 -4,1 -6,1 -8,0 -14,-6 -14,-14l0 -1zm-266 231l0 -8 0 -21 0 0c8,0 14,7 14,14 0,8 -6,15 -14,15l0 0zm223 265c8,0 14,6 14,14 0,8 -6,15 -14,15l0 0 0 0c-8,0 -14,-7 -14,-15 0,-8 6,-14 14,-14l0 0 0 0zm-111 0c7,0 14,6 14,14 0,8 -7,15 -14,15l0 0 -1 0c-7,0 -13,-7 -13,-15 0,-8 6,-14 13,-14l1 0 0 0zm223 0c8,0 14,6 14,14 0,8 -6,15 -14,15 -8,0 -14,-7 -14,-15 0,-8 6,-14 14,-14zm111 0c8,0 14,6 14,14 0,8 -6,15 -14,15 -7,0 -13,-7 -13,-15 0,-8 6,-14 13,-14zm-223 -294c8,0 14,7 14,14 0,8 -6,15 -14,15l0 0 0 0c-8,0 -14,-7 -14,-15 0,-7 6,-14 14,-14l0 0 0 0zm-111 0c7,0 14,7 14,14 0,8 -7,15 -14,15l0 0 -1 0c-7,0 -13,-7 -13,-15 0,-7 6,-14 13,-14l1 0 0 0zm223 0c8,0 14,7 14,14 0,8 -6,15 -14,15 -8,0 -14,-7 -14,-15 0,-7 6,-14 14,-14zm-167 67c8,0 14,7 14,15 0,7 -6,14 -14,14l0 0 0 0c-8,0 -14,-7 -14,-14 0,-8 6,-15 14,-15l0 0 0 0zm112 0c8,0 14,7 14,15 0,7 -6,14 -14,14 -8,0 -14,-7 -14,-14 0,-8 6,-15 14,-15zm112 0c7,0 13,7 13,15 0,7 -6,14 -13,14 -8,0 -14,-7 -14,-14 0,-8 6,-15 14,-15zm-169 82c8,0 14,6 14,14 0,8 -6,14 -14,14l0 0 0 0c-8,0 -14,-6 -14,-14 0,-8 6,-14 14,-14l0 0 0 0zm-111 0c7,0 14,6 14,14 0,8 -7,14 -14,14l0 0 -1 0c-7,0 -13,-6 -13,-14 0,-8 6,-14 13,-14l1 0 0 0zm223 0c8,0 14,6 14,14 0,8 -6,14 -14,14 -8,0 -14,-6 -14,-14 0,-8 6,-14 14,-14zm-167 67c8,0 14,6 14,14 0,8 -6,14 -14,14l0 0 0 0c-8,0 -14,-6 -14,-14 0,-8 6,-14 14,-14l0 0 0 0zm112 0c8,0 14,6 14,14 0,8 -6,14 -14,14 -8,0 -14,-6 -14,-14 0,-8 6,-14 14,-14zm112 0c7,0 13,6 13,14 0,8 -6,14 -13,14 -8,0 -14,-6 -14,-14 0,-8 6,-14 14,-14zm-169 -350c8,0 14,6 14,14 0,8 -6,14 -14,14l0 0 0 0c-8,0 -14,-6 -14,-14 0,-8 6,-14 14,-14l0 0 0 0zm-111 0c7,0 14,6 14,14 0,8 -7,14 -14,14l0 0 -1 0c-7,0 -13,-6 -13,-14 0,-8 6,-14 13,-14l1 0 0 0zm223 0c8,0 14,6 14,14 0,8 -6,14 -14,14 -8,0 -14,-6 -14,-14 0,-8 6,-14 14,-14zm-167 67c8,0 14,6 14,14 0,8 -6,15 -14,15l0 0 0 0c-8,0 -14,-7 -14,-15 0,-8 6,-14 14,-14l0 0 0 0zm112 0c8,0 14,6 14,14 0,8 -6,15 -14,15 -8,0 -14,-7 -14,-15 0,-8 6,-14 14,-14zm112 0c7,0 13,6 13,14 0,8 -6,15 -13,15 -8,0 -14,-7 -14,-15 0,-8 6,-14 14,-14zm-392 361c8,0 14,6 14,14 0,8 -6,15 -14,15 -8,0 -14,-7 -14,-15 0,-8 6,-14 14,-14zm56 -227c8,0 14,7 14,15 0,7 -6,14 -14,14 -7,0 -13,-7 -13,-14 0,-8 6,-15 13,-15zm0 149c8,0 14,6 14,14 0,8 -6,14 -14,14 -7,0 -13,-6 -13,-14 0,-8 6,-14 13,-14zm0 -283c8,0 14,6 14,14 0,8 -6,15 -14,15 -7,0 -13,-7 -13,-15 0,-8 6,-14 13,-14z"/>
  </g>
 </g>
</svg>
