<?xml version="1.0" encoding="UTF-8"?>
<!DOCTYPE svg PUBLIC "-//W3C//DTD SVG 1.1//EN" "http://www.w3.org/Graphics/SVG/1.1/DTD/svg11.dtd">
<!-- Creator: CorelDRAW X7 -->
<svg xmlns="http://www.w3.org/2000/svg" xml:space="preserve" width="9.2286mm" height="17.1026mm" version="1.1" style="shape-rendering:geometricPrecision; text-rendering:geometricPrecision; image-rendering:optimizeQuality; fill-rule:evenodd; clip-rule:evenodd"
viewBox="0 0 923 1710"
 xmlns:xlink="http://www.w3.org/1999/xlink">
 <defs>
  <style type="text/css">
   <![CDATA[
    .fil1 {fill:#FFD43B;fill-rule:nonzero}
    .fil0 {fill:black;fill-rule:nonzero;fill-opacity:0.400000}
    .fil2 {fill:black;fill-opacity:0.501961}
   ]]>
  </style>
 </defs>
 <g id="Capa_x0020_1">
  <metadata id="CorelCorpID_0Corel-Layer"/>
  <g id="_602572792736">
   <path class="fil0" d="M697 363c0,-201 -159,-363 -355,-363 -186,0 -339,147 -354,334l0 1043c14,179 154,321 328,334l594 0c-191,-46 -214,-175 -213,-363l0 0 0 0 0 -54 0 0 0 -53 0 -5 0 0c0,-62 0,-122 0,-122 0,-203 0,-386 0,-751z"/>
   <path class="fil1" d="M567 1449c0,183 90,251 127,262l-351 0c-16,-4 -242,12 -223,-276l1 -15 222 -135 224 135c0,0 0,-20 0,29z"/>
   <path class="fil0" d="M934 1708c-3,1 -6,2 -10,3l10 0 0 -3z"/>
   <path class="fil2" d="M568 1482l0 3 0 0 0 0 0 1 1 2 0 1 0 0 0 1 0 0 0 1 0 2 0 0 0 1 0 0 0 0 0 0 0 1 0 1 0 1 0 0 0 1 0 0 1 3 0 0 0 1 0 1 0 0 0 1 0 0 0 1 0 0 0 1c-1,0 -2,0 -2,0l-1 0 0 0c-7,0 -14,-6 -14,-14 0,-8 7,-15 14,-15l0 0 1 0 0 0 0 0 0 5zm70 229l-28 0 0 -1c0,-8 6,-14 14,-14 8,0 14,6 14,14l0 1zm-223 0l-28 0 0 -1c0,-8 6,-14 14,-14 7,0 14,6 14,14l0 1zm-189 -355l20 -13c0,8 -6,14 -14,14 -2,0 -4,0 -6,-1zm216 -11l19 11c-1,1 -3,1 -5,1l0 0 0 0c-8,0 -13,-5 -14,-12zm-315 153l-1 -6 0 -1 0 0 0 -1 -1 -4 0 0c0,-3 -1,-5 -1,-8l0 0c6,1 11,7 11,14 0,5 -3,9 -7,12l0 -1 0 0 -1 -5 0 0zm175 207l-1 0 0 -1 0 0 -1 0 0 0 -1 0 0 0 0 0 -1 0 0 0 0 0 -1 0 0 0 -1 -1 0 0 0 0 -1 0 0 0 0 0 -1 0 0 0 0 0 -2 -1 -1 0 0 0 0 0 -1 0 0 0 0 0 -1 0 0 0 -2 -1 -1 0 0 0 -5 -2 0 0 -1 0 0 0c3,-2 6,-3 9,-3 6,0 11,3 13,9zm266 -77c7,0 13,7 13,15 0,8 -6,14 -13,14l-1 0 0 0c-7,0 -14,-6 -14,-14 0,-8 7,-15 14,-15l0 0 1 0zm-112 0c8,0 14,7 14,15 0,8 -6,14 -14,14l0 0 0 0c-8,0 -14,-6 -14,-14 0,-8 6,-15 14,-15l0 0 0 0zm57 -232c7,0 13,6 13,14 0,8 -6,14 -13,14l-1 0 0 0c-7,0 -14,-6 -14,-14 0,-8 7,-14 14,-14l0 0 1 0zm-57 81c8,0 14,7 14,15 0,8 -6,14 -14,14l0 0 0 0c-8,0 -14,-6 -14,-14 0,-8 6,-15 14,-15l0 0 0 0zm57 68c7,0 13,6 13,14 0,8 -6,14 -13,14l-1 0 0 0c-7,0 -14,-6 -14,-14 0,-8 7,-14 14,-14l0 0 1 0zm-281 83c8,0 14,7 14,15 0,8 -6,14 -14,14 -7,0 -13,-6 -13,-14 0,-8 6,-15 13,-15zm112 0c8,0 14,7 14,15 0,8 -6,14 -14,14 -8,0 -14,-6 -14,-14 0,-8 6,-15 14,-15zm0 -299c8,0 14,6 14,14 0,8 -6,14 -14,14 -8,0 -14,-6 -14,-14 0,-8 6,-14 14,-14zm-166 67c7,0 13,6 13,14 0,8 -6,14 -13,14 -8,0 -14,-6 -14,-14 0,-8 6,-14 14,-14zm111 0c8,0 14,6 14,14 0,8 -6,14 -14,14 -8,0 -14,-6 -14,-14 0,-8 6,-14 14,-14zm112 0c7,0 14,6 14,14 0,8 -7,14 -14,14 -8,0 -14,-6 -14,-14 0,-8 6,-14 14,-14zm-169 81c8,0 14,7 14,15 0,8 -6,14 -14,14 -7,0 -13,-6 -13,-14 0,-8 6,-15 13,-15zm112 0c8,0 14,7 14,15 0,8 -6,14 -14,14 -8,0 -14,-6 -14,-14 0,-8 6,-15 14,-15zm-166 68c7,0 13,6 13,14 0,8 -6,14 -13,14 -8,0 -14,-6 -14,-14 0,-8 6,-14 14,-14zm111 0c8,0 14,6 14,14 0,8 -6,14 -14,14 -8,0 -14,-6 -14,-14 0,-8 6,-14 14,-14zm112 0c7,0 14,6 14,14 0,8 -7,14 -14,14 -8,0 -14,-6 -14,-14 0,-8 6,-14 14,-14z"/>
  </g>
 </g>
</svg>
