<?xml version="1.0" encoding="UTF-8"?>
<!DOCTYPE svg PUBLIC "-//W3C//DTD SVG 1.1//EN" "http://www.w3.org/Graphics/SVG/1.1/DTD/svg11.dtd">
<!-- Creator: CorelDRAW X7 -->
<svg xmlns="http://www.w3.org/2000/svg" xml:space="preserve" width="11.3452mm" height="17.1026mm" version="1.1" style="shape-rendering:geometricPrecision; text-rendering:geometricPrecision; image-rendering:optimizeQuality; fill-rule:evenodd; clip-rule:evenodd"
viewBox="0 0 1135 1710"
 xmlns:xlink="http://www.w3.org/1999/xlink">
 <defs>
  <style type="text/css">
   <![CDATA[
    .fil1 {fill:#FFD43B;fill-rule:nonzero}
    .fil0 {fill:black;fill-rule:nonzero;fill-opacity:0.400000}
    .fil2 {fill:black;fill-opacity:0.501961}
   ]]>
  </style>
 </defs>
 <g id="Capa_x0020_1">
  <metadata id="CorelCorpID_0Corel-Layer"/>
  <g id="_602572774176">
   <path class="fil0" d="M565 0l-2 0c-186,0 -339,147 -353,334l0 1014 0 0c1,195 -27,317 -209,362l0 1 1133 0c-186,-44 -215,-167 -214,-363l0 0 0 -1014c-14,-187 -167,-334 -353,-334l-2 0z"/>
   <path class="fil1" d="M788 1449c0,189 135,255 170,262l-393 0 -1 0 -1 0 -394 0c36,-7 170,-73 170,-262 0,-76 0,-108 0,-108l225 -136 224 136c0,0 0,32 0,108z"/>
   <path class="fil2" d="M788 1356l0 7c0,0 -1,0 -2,0 -8,0 -14,-6 -14,-14 0,-6 4,-11 8,-13l8 5 0 2 0 4 0 3 0 3 0 3zm69 355l-28 0 0 -1c0,-8 6,-14 14,-14 7,0 14,6 14,14l0 1zm-112 0l-28 0 0 -1c0,-8 7,-14 14,-14 8,0 14,6 14,14l0 1zm-112 0l-27 0 0 -1c0,-8 6,-14 14,-14 7,0 14,6 14,14l-1 1zm-111 0l-28 0 0 -1c0,-8 6,-14 14,-14l0 0 0 0c8,0 14,6 14,14l0 1zm-112 0l-28 0 0 -1c0,-8 6,-14 14,-14 8,0 14,6 14,14l0 1zm-112 0l-27 0 0 -1c0,-8 6,-14 14,-14 7,0 13,6 13,14l0 1zm-111 0l-17 0 0 0 0 0 0 0 0 0 0 0 0 0 1 -1 0 0 0 0 1 0 0 0 0 0 0 0 0 0 1 0 0 0 0 0 0 0 1 0 0 0 0 0 0 0 0 0 1 -1 0 0 0 0 0 0 1 0 0 0 0 0 1 0 0 0 0 0 2 -1 0 0 0 0 0 0 1 0 2 -1 0 0 0 0 2 0 0 -1 0 0 1 0 1 0 0 0c1,1 1,2 1,4l0 1zm606 -205l0 2 0 0 0 1 0 0 0 1 0 0c-2,1 -4,2 -7,2 -8,0 -14,-7 -14,-15 0,-7 6,-14 14,-14 1,0 3,0 4,1l0 0 0 0c0,2 0,5 1,7l0 1 0 0 0 0 0 0 0 0c0,2 0,4 1,6l0 0 0 0 0 0 0 0 0 1 0 2 0 0m-458 9l1 -5 0 0 0 0 0 -1 0 0 0 0 0 -1 0 0 0 -1 1 0 0 0 0 -1 0 0 0 -3 0 0 0 0 0 -1 0 0 1 -3 0 -1 0 0 0 -2 0 0 0 0 0 0c0,-2 0,-5 1,-7l0 0 0 0 0 0 0 -1c0,0 1,0 2,0 7,0 13,7 13,14 0,8 -6,15 -13,15 -2,0 -4,-1 -6,-1l0 -1 0 0zm5 -169l7 -5c5,3 7,8 7,13 0,8 -6,14 -13,14l-1 0 0 -7 0 -3 0 -3 0 -3 0 -4 0 -2zm210 -127l15 -9 13 8c0,0 0,1 0,2 0,7 -6,14 -14,14l0 0 0 0c-8,0 -14,-7 -14,-14l0 -1zm243 287l0 0 0 1 1 3 0 0 0 0 0 1 0 0 0 0m-230 122c8,0 14,7 14,15 0,8 -6,14 -14,14l0 0 0 0c-8,0 -14,-6 -14,-14 0,-8 6,-15 14,-15l0 0 0 0zm-112 0c8,0 14,7 14,15 0,8 -6,14 -14,14l0 0 0 0c-8,0 -14,-6 -14,-14 0,-8 6,-15 14,-15l0 0 0 0zm224 0c7,0 13,7 13,15 0,8 -6,14 -13,14 -8,0 -14,-6 -14,-14 0,-8 6,-15 14,-15zm111 0c8,0 14,7 14,15 0,8 -6,14 -14,14 -8,0 -14,-6 -14,-14 0,-8 6,-15 14,-15zm-223 -293c8,0 14,6 14,14 0,8 -6,14 -14,14l0 0 0 0c-8,0 -14,-6 -14,-14 0,-8 6,-14 14,-14l0 0 0 0zm-112 0c8,0 14,6 14,14 0,8 -6,14 -14,14l0 0 0 0c-8,0 -14,-6 -14,-14 0,-8 6,-14 14,-14l0 0 0 0zm224 0c7,0 13,6 13,14 0,8 -6,14 -13,14 -8,0 -14,-6 -14,-14 0,-8 6,-14 14,-14zm-167 67c8,0 14,6 14,14 0,8 -6,14 -14,14l0 0 0 0c-8,0 -14,-6 -14,-14 0,-8 6,-14 14,-14l0 0 0 0zm112 0c7,0 14,6 14,14 0,8 -7,14 -14,14 -8,0 -14,-6 -14,-14 0,-8 6,-14 14,-14zm111 0c8,0 14,6 14,14 0,8 -6,14 -14,14 -7,0 -14,-6 -14,-14 0,-8 7,-14 14,-14zm-168 81c8,0 14,7 14,14 0,8 -6,15 -14,15l0 0 0 0c-8,0 -14,-7 -14,-15 0,-7 6,-14 14,-14l0 0 0 0zm-112 0c8,0 14,7 14,14 0,8 -6,15 -14,15l0 0 0 0c-8,0 -14,-7 -14,-15 0,-7 6,-14 14,-14l0 0 0 0zm224 0c7,0 13,7 13,14 0,8 -6,15 -13,15 -8,0 -14,-7 -14,-15 0,-7 6,-14 14,-14zm-167 67c8,0 14,7 14,15 0,7 -6,14 -14,14l0 0 0 0c-8,0 -14,-7 -14,-14 0,-8 6,-15 14,-15l0 0 0 0zm112 0c7,0 14,7 14,15 0,7 -7,14 -14,14 -8,0 -14,-7 -14,-14 0,-8 6,-15 14,-15zm111 0c8,0 14,7 14,15 0,7 -6,14 -14,14 -7,0 -14,-7 -14,-14 0,-8 7,-15 14,-15zm-223 -283c8,0 14,7 14,15 0,8 -6,14 -14,14l0 0 0 0c-8,0 -14,-6 -14,-14 0,-8 6,-15 14,-15l0 0 0 0zm112 0c7,0 14,7 14,15 0,8 -7,14 -14,14 -8,0 -14,-6 -14,-14 0,-8 6,-15 14,-15zm-280 361c7,0 13,7 13,15 0,8 -6,14 -13,14 -8,0 -14,-6 -14,-14 0,-8 6,-15 14,-15zm56 -226c8,0 14,6 14,14 0,8 -6,14 -14,14 -8,0 -14,-6 -14,-14 0,-8 6,-14 14,-14zm0 148c8,0 14,7 14,15 0,7 -6,14 -14,14 -8,0 -14,-7 -14,-14 0,-8 6,-15 14,-15z"/>
  </g>
 </g>
</svg>
