<?xml version="1.0" encoding="UTF-8"?>
<!DOCTYPE svg PUBLIC "-//W3C//DTD SVG 1.1//EN" "http://www.w3.org/Graphics/SVG/1.1/DTD/svg11.dtd">
<!-- Creator: CorelDRAW X7 -->
<svg xmlns="http://www.w3.org/2000/svg" xml:space="preserve" width="72.2188mm" height="28.363mm" version="1.1" style="shape-rendering:geometricPrecision; text-rendering:geometricPrecision; image-rendering:optimizeQuality; fill-rule:evenodd; clip-rule:evenodd"
viewBox="0 0 7222 2836"
 xmlns:xlink="http://www.w3.org/1999/xlink">
 <defs>
  <style type="text/css">
   <![CDATA[
    .fil1 {fill:#14365B}
    .fil2 {fill:#AAB0C2;fill-rule:nonzero}
    .fil0 {fill:#F4DC8B;fill-opacity:0.149020}
   ]]>
  </style>
 </defs>
 <g id="Capa_x0020_1">
  <metadata id="CorelCorpID_0Corel-Layer"/>
  <g id="_1028359906496">
   <path class="fil0" d="M1237 2619c30,24 8,21 -10,45 -14,19 -18,30 -26,46 49,-13 45,-22 71,-55l136 -192c-36,72 -60,121 -62,211 109,-9 56,-38 127,-92 57,-44 24,13 58,-41 18,-29 -13,-7 15,-67 9,6 34,31 36,32 37,21 -11,10 33,6l30 -6c2,-1 8,-3 10,-4 55,-25 147,-129 164,-192l10 29c14,22 -22,10 26,26 11,-41 5,-18 27,-47l80 -103c67,-66 39,2 22,22 -3,3 -14,14 -18,18l-25 31c-4,4 -12,17 -16,21l-17 19c-3,3 -7,7 -9,9 -59,63 -43,62 -25,139 53,-14 60,-40 98,-83l128 -182c2,-3 6,-7 8,-10l97 -85c-21,29 -16,22 -35,56 -25,48 -38,83 -57,124 -37,82 -109,154 -130,235 49,-12 29,-12 80,-24 72,-17 57,-9 188,-164l223 -267c-20,73 -171,259 -230,334 -2,3 -6,7 -8,10l-34 39c-31,41 -23,19 -37,72 59,-16 22,1 64,-45l118 -28c124,-11 -19,-18 64,-97 26,-24 38,-31 62,-51 2,-2 27,-23 28,-24l35 -60c2,-3 19,-24 22,-28l96 -142c24,-55 20,-25 20,-108 80,85 54,-62 182,-72 2,71 -5,42 18,91 67,-18 38,-20 91,-55 12,3 35,14 38,15 44,12 2,18 35,3l21 15c0,7 -12,6 -13,12 -1,5 -18,18 -18,18 -28,42 -10,49 -27,119 50,-36 58,-87 91,-109l39 -16c26,-10 5,6 41,-13 45,-25 22,-14 48,-62l58 51c-77,-12 -51,-34 -76,76 108,-2 72,-25 128,-90l56 -52c33,-31 -7,-28 44,-34 77,-8 19,-4 44,12 -60,25 -13,-15 -57,70 -30,56 -27,21 -34,94 74,-19 29,-17 82,-46 85,-48 37,10 148,-90 7,-6 28,-23 31,-25 17,-11 -21,-26 12,-3 13,27 16,-3 -1,37 -12,28 -17,27 -39,49 -45,46 -52,32 -69,96l76 -51c105,-102 23,-60 124,-64 54,-2 25,2 73,-30 -16,69 -26,100 -80,138 -2,2 -8,4 -11,7 96,0 89,20 109,-54l16 72c75,-30 5,23 93,-18 -7,93 -13,25 -36,109l82 -81c13,-14 26,-26 27,-28 -5,67 -26,74 -54,128 66,-18 38,-19 91,-55 -17,79 -44,48 36,55 -6,66 -26,73 -55,127 66,-18 128,-79 146,-146 39,28 57,68 73,110 -64,42 -65,17 -73,91 84,-7 29,-2 96,-39l25 -14c2,-1 7,-4 9,-5 140,-90 89,-35 106,39 39,-10 50,-28 73,-18 -10,23 11,49 5,78 -10,42 -28,47 -41,104 38,-25 41,-40 71,-75 108,-128 91,-43 170,-82 65,-31 -33,-3 50,-25l-1 64c0,1 -1,6 1,9 50,-33 66,-34 73,-109 74,30 2,26 72,54 67,-138 41,-66 175,-143 56,-32 18,-31 44,-93 47,11 53,16 91,36 29,-43 45,-51 80,-103 43,-63 25,-62 47,-115l54 55c9,-109 34,-21 37,-146l127 -18c40,29 -25,35 -54,91 86,-23 26,-35 96,-49 107,-22 -20,2 67,31 2,-81 34,-137 109,-164l-94 106c72,-15 56,-32 113,-70 29,44 22,19 36,73 -69,31 73,-2 -25,-3 -36,-1 3,-26 -31,6l-53 130c-44,78 -45,11 -55,104 72,-6 184,-114 224,-177 39,-60 144,-169 213,-187 -2,4 -5,5 -6,12 -2,6 -6,9 -7,11l-15 22c-63,86 7,79 -84,169 -62,60 -156,117 -179,204 120,-32 192,-156 262,-247l49 -60c44,-44 70,-56 107,-111 -27,-12 3,-1 -23,0l-31 0c56,-38 34,-38 91,0 -15,-173 16,-92 34,-84 0,0 0,83 39,7 26,-48 2,14 2,-25 -1,-32 -50,17 81,-105l62 -66c-15,-54 -8,-30 -37,-73 -36,12 -46,38 -97,83l-223 153c-86,20 29,-65 57,-99 143,-169 61,-72 125,-183 57,-101 138,-82 138,-227 -187,126 -289,350 -472,473 44,-165 257,-286 345,-418 -87,7 -35,23 -91,0 36,-53 37,-25 55,-91 -80,21 -167,122 -219,182 6,-71 44,-91 81,-138 21,-29 14,-5 29,-44 -48,13 -101,83 -115,32 -8,-32 52,-75 96,-87l0 -72c-79,21 -32,27 -109,0 37,-50 13,-16 39,-35 90,-68 53,-65 59,-83 14,-48 -24,-25 30,-46l-37 -18c-38,-27 -16,12 -36,-37 72,0 74,6 127,18 -25,-109 32,-88 -73,-91 -17,66 -1,49 -72,55 37,-71 88,-108 127,-182 -84,18 -58,40 -36,-54 -66,5 -60,8 -95,50 -19,22 -55,73 -69,95l-21 -15c0,-6 9,-17 11,-14l24 -33c2,-3 5,-8 7,-11 28,-59 1,-82 -39,-109 20,97 -14,87 -73,164 -35,45 -88,135 -127,164 2,-109 120,-162 145,-255 -76,40 -98,91 -155,154 -38,42 -3,30 -63,46 15,-22 33,-54 50,-77 49,-68 94,-53 41,-159 -50,33 -74,62 -109,109 -40,56 -51,91 -128,54 -8,-27 3,2 26,-42 37,-71 139,-183 156,-249l-119 63c-42,50 25,-31 -15,21 -31,39 -36,51 -84,62 29,-28 37,-37 59,-77 32,-56 50,-63 50,-142 -110,-2 -53,12 -73,-36l-71 56c-22,24 -32,47 -53,75 -78,102 -62,28 -131,85 -58,48 -75,130 -132,169l-17 9c-2,1 -6,3 -8,4l-17 11c-2,2 -6,6 -9,8 -2,2 -6,6 -8,9l-45 47 0 -145c-87,7 -35,22 -91,0 -5,62 -43,101 -18,145 -3,1 -8,-2 -9,1 -14,44 -4,-2 -20,4 -58,22 -40,41 -26,104 -41,-9 -41,-14 -90,-18 22,-98 0,-94 -91,-73 38,96 -47,-78 25,31 27,39 18,-33 13,24 -2,32 -28,29 -57,36l-32 -40c14,-65 42,-62 51,-160 -42,10 -42,14 -91,18l0 -36c153,-13 94,-111 127,-182l31 7c3,0 10,2 13,3 71,20 -60,-1 29,8l0 -36c-48,-20 -34,37 -37,-73 -57,31 -54,35 -100,82l-44 46c-32,29 -3,22 -56,36 30,-62 49,-72 55,-146 -37,27 -100,115 -132,160 -5,6 -31,41 -31,41 -2,3 -5,8 -7,11 -31,46 -45,86 -85,116 0,-153 27,-59 55,-164l-64 0c-1,0 -6,1 -9,0 24,-92 48,-36 73,-127 -48,-13 -21,6 -37,-37l-104 133c-41,38 -109,54 -169,67l179 -239c41,-51 57,-60 98,-121 34,-51 72,-72 87,-131 -105,3 -55,16 -107,69l-37 29c-14,15 -31,46 -49,72 -29,39 -29,53 -80,67 9,-103 77,-116 110,-255 -85,23 -26,15 -88,78 -47,47 -61,4 -40,104l-70 -58 -82 123c-6,7 -6,-43 -30,44l-36 0c-3,-110 12,-53 -36,-73 -29,44 -22,19 -37,73l-127 -91c-17,80 12,56 -37,91 -14,-29 -18,34 0,-55 -100,9 -44,42 -164,54 -120,12 -106,16 -199,37 21,-81 -6,-22 52,-57 114,-69 42,-69 100,-108 59,-40 2,53 66,-35 -27,-11 -63,-13 -89,-6l-94 31c-1,1 -5,3 -7,4 -3,1 -11,7 -15,9l-122 53c7,-93 13,-24 36,-109l-200 127 0 -54c-40,11 -19,3 -47,26l-44 47c-94,-50 -80,-79 -182,-55 5,56 17,88 36,127 -101,-2 -80,-15 -182,-18 22,-94 47,-55 55,-145l-159 204c-88,92 -46,144 -150,214 7,-83 12,-40 50,-108 1,-2 3,-7 4,-9l7 -19c19,-48 -13,3 25,-50 21,-29 40,-51 64,-84 46,-65 58,-53 50,-76 -40,-17 -86,79 -123,106 -54,38 -85,95 -114,149 -53,-14 -29,-7 -72,-36 12,58 18,28 0,73 -140,-4 -41,-45 -142,39 -25,21 -40,29 -50,33 5,-23 9,-31 18,-62 -13,3 -23,5 -30,7 23,-44 20,-25 -15,-90 79,16 48,44 55,-37 -78,7 -33,-2 -91,37 -8,-95 17,-33 -36,-55l36 -164c-72,48 -73,24 -93,32 -24,10 -3,-41 -28,30 -10,31 -6,33 -6,66 -108,12 -25,-4 -56,47 -49,81 -86,27 -163,171 -10,-7 -29,-30 -35,-33 -37,-18 -45,4 -86,5l-79 -8c-79,0 38,49 -182,54 67,100 10,48 37,164 -54,-26 -12,-21 -81,-8 -85,16 33,33 -83,8l14 38c-1,1 -2,2 -1,2 0,0 1,0 1,0l30 84c39,118 33,43 -117,40 -14,39 1,12 -21,36 -1,1 -23,20 -27,21 -40,15 -4,17 -61,-21 -16,33 -14,23 -18,73 -95,8 -71,66 -127,-18 116,-27 72,-67 163,-91 -32,-48 -9,-38 -73,-55 53,-71 134,-52 164,-164l-109 -36 -540 351c-115,62 -344,249 -451,331 -69,54 -39,-4 -64,64 123,59 120,-38 127,-55 72,0 74,-5 128,-18 -30,72 -9,66 -122,106 -57,20 13,14 -78,21 44,62 4,8 52,33 51,28 8,53 158,-22 33,-16 28,-16 46,-27l53 -38c66,47 -152,87 -182,200 56,5 34,0 73,18 60,-44 12,-34 63,-59 69,-35 39,4 247,-122 124,-76 93,-22 198,-130l19 -18c3,-3 7,-6 9,-9 43,-36 41,-38 100,-26 -55,77 -120,50 -145,146l73 0c-123,65 -363,283 -473,309l0 36c36,-3 55,-5 72,-9 76,-16 74,-32 138,-70 68,-39 51,-18 112,-71 48,-40 51,-48 132,-50 -29,26 -58,51 -91,72 -38,24 -60,36 -101,63 -65,42 -150,84 -190,138 41,-9 42,-10 80,-29 26,-13 18,-9 35,-20 33,-22 13,-8 31,-24l21 16c-1,5 -84,52 -94,57l38 100c15,34 34,17 53,100l58 -62c38,-41 -23,-22 15,-10l-11 61c-4,9 -11,28 -14,36l-72 154c-11,30 -6,23 -27,60 -39,70 -38,76 -58,162 92,-10 25,24 75,-53 21,-31 23,-53 60,-78 45,-31 18,-36 65,-106 21,45 38,27 17,87 -25,74 -51,66 -53,168l36 0c20,-74 67,-124 127,-164 -9,109 -28,31 -54,127l73 0 0 55c-50,19 -50,-13 -19,55 47,-17 63,-25 91,-146 58,19 12,2 36,28 22,24 18,18 37,45l-60 -1c-2,2 -9,21 -11,25 -6,9 -13,24 -20,30l91 0 0 30c-1,0 -2,-1 -3,-1 0,0 -9,-52 -11,-1 -1,27 9,24 14,16l0 29 274 -344c-2,3 -13,16 -15,20 -51,79 -168,315 -168,397 -96,0 -27,0 -55,18l41 32c2,2 6,9 8,11 1,2 4,8 6,12l34 -51 -2 49 18 1 2 -55 -14 -1 71 -107c11,19 4,-2 11,34 5,27 5,24 7,57 32,-8 49,-2 55,-37zm3055 -2218c-2,45 29,6 11,1 0,0 -9,-52 -11,-1zm492 127l6 -6c-1,0 -8,4 -6,6zm-13 -250l6 -5c0,0 -7,3 -6,5zm-23 377c18,19 66,-26 21,-10 -1,0 -52,-21 -21,10zm-313 -193c10,-6 17,-8 34,-20l41 -31 -7 1c76,-49 56,-19 63,-85 -48,18 -55,24 -71,85 -41,1 -57,1 -60,50zm4 -135c53,-12 26,3 54,-36 -32,8 -49,2 -54,36zm309 255l18 0 0 -73 -18 0 0 73zm-1242 1822l5 -5c0,0 -7,3 -5,5zm-1278 -1882l6 -5c0,1 -7,4 -6,5zm1957 1768l5 -5c0,0 -7,3 -5,5zm-640 61l5 -5c0,0 -7,3 -5,5zm-778 -2058l6 -5c0,0 -7,3 -6,5zm-166 47l6 -5c0,0 -7,3 -6,5zm1002 1923c18,19 67,-23 22,-9 -1,0 -51,-23 -22,9zm-1485 -1637c-6,11 -15,25 -26,47l-21 -15c0,-6 10,-16 11,-13l23 -38c-2,5 -5,12 -9,18l22 1zm65 -353l5 -6c0,1 -7,4 -5,6zm164 0l5 -6c0,1 -7,4 -5,6zm-200 -91l5 -5c0,0 -7,3 -5,5zm-2001 1000l5 -5c0,0 -7,4 -5,5zm2910 1037l5 -5c0,0 -7,3 -5,5zm-218 -2146l5 -6c0,1 -7,4 -5,6zm-1565 673l6 -6c-1,1 -7,4 -6,6zm419 -346l5 -5c0,0 -7,3 -5,5zm545 -164l6 -5c0,0 -7,4 -6,5zm-545 237l5 -5c0,0 -7,3 -5,5zm673 -36l5 -6c0,1 -7,4 -5,6zm1855 -401l6 -5c-1,0 -8,4 -6,5zm-491 2038l6 -6c-1,1 -8,4 -6,6zm127 72l6 -5c-1,0 -7,4 -6,5zm-1746 -1873l6 -6c-1,1 -8,4 -6,6zm127 91l6 -6c0,1 -7,4 -6,6zm-54 -273l5 -5c0,0 -7,3 -5,5zm909 2074l6 -6c-1,1 -7,4 -6,6zm710 -55l5 -5c0,0 -7,3 -5,5zm-1583 -1964l6 -6c-1,0 -8,4 -6,6zm437 54l5 -5c0,0 -7,3 -5,5zm-600 0l5 -5c0,0 -7,3 -5,5zm-1328 528c1,1 5,-8 5,-6l0 0c0,1 -7,4 -5,6zm-346 1146c2,1 5,-8 5,-6l0 0c0,1 -7,4 -5,6zm0 -73c2,2 5,-8 5,-6l0 0c0,1 -7,4 -5,6zm1855 -1492c-22,23 22,24 9,1l-9 -1zm-109 -91c0,46 29,5 12,0 -1,0 -12,-51 -12,0zm1547 1747c0,45 29,4 11,0 0,0 -11,-52 -11,0zm72 -1783c0,45 29,5 12,0 -1,0 -12,-52 -12,0zm-3420 2037c1,6 21,4 22,4 5,-2 32,42 8,-5 0,-1 -34,-34 -30,1zm-36 -1128c19,19 66,-26 21,-9 0,0 -51,-21 -21,9zm2856 983c19,18 66,-26 21,-10 0,0 -52,-21 -21,10zm-1837 -1383c4,21 40,40 24,4 -6,-15 -33,-51 -24,-4zm-1237 419c53,-13 26,2 54,-37 -32,8 -48,3 -54,37zm3329 -1001l5 -5c0,0 -7,3 -5,5zm-19 0c-14,14 11,62 24,29 8,-22 -10,-43 -24,-29zm-1673 328c95,-9 33,17 55,-37 -32,16 -37,12 -55,37zm2183 -201c10,-6 16,-9 33,-21l40 -33c-53,4 -72,0 -73,54zm-2329 273l55 0c4,-49 9,-49 18,-91 -85,23 -35,13 -73,91zm-1073 1692c2,2 6,-8 6,-5l0 0c-1,0 -8,3 -6,5zm-91 127l37 0c19,-81 36,-58 54,-127 -10,1 -48,-4 -75,34 -26,36 -16,36 -16,93zm-54 0c40,57 13,57 54,0l-54 0zm558 408c2,2 6,-7 6,-5l0 0c-1,1 -8,3 -6,5zm55 3c1,1 4,-5 5,-6 0,-6 0,-14 0,-23 41,44 95,54 18,110 -21,-45 -19,-38 -18,-86 -1,1 -7,3 -5,5zm89 41c-24,21 20,25 8,0 0,0 -3,-1 -3,-1 0,0 -4,-1 -5,1zm-38 16c-19,18 24,67 9,22 0,-1 23,-51 -9,-22zm-29 -147l36 2 3 -55c-31,20 -35,2 -39,53zm-508 25c2,2 5,-8 5,-5l0 0c0,0 -7,3 -5,5zm55 0c1,2 5,-8 5,-5l0 0c0,0 -7,3 -5,5zm127 -91c2,2 5,-8 5,-5l0 0c0,0 -7,3 -5,5zm-146 -109c0,45 29,5 12,0 -1,0 -12,-52 -12,0zm110 236c-23,23 21,25 8,1 0,0 -3,-1 -3,-1 -1,0 -4,-1 -5,0zm-37 19c-19,18 26,65 10,21 0,-1 21,-52 -10,-21zm73 -73l18 0 0 -55 -18 0 0 55zm-109 -73l36 0 0 -54c-30,20 -35,3 -36,54zm163 -18c7,-11 30,28 15,-59 -6,-32 15,-16 -33,-32 4,49 9,50 18,91zm19 18c-10,51 43,-9 18,-7 -34,2 -11,-31 -18,7zm-55 -54l5 5c0,0 -3,-7 -5,-5zm309 181l6 -5c-1,0 -7,4 -6,5zm-18 110l6 5c-1,0 -4,-7 -6,-5zm-109 -164c60,-44 20,-20 55,-91 -94,8 -61,15 -55,91zm-73 91l55 -55c-4,49 -9,50 -18,91 55,-40 49,-65 36,-127 -73,17 -71,5 -73,91zm5494 -819l5 6c0,-1 -7,-4 -5,-6zm73 -73c141,33 30,26 118,-82 13,-16 40,-25 64,-71 10,-19 13,-52 64,-91 45,-34 -32,-18 63,-28 -21,-79 -33,-28 -29,-88 5,-59 21,-2 29,-94 96,0 27,0 54,-18 -88,1 -94,28 -156,80 -109,92 -49,106 -135,65 -3,131 -89,158 -139,207 -47,45 -4,24 -61,66 26,72 3,2 55,73 -126,66 -59,55 -60,151 0,91 -99,124 -15,113 60,-8 23,2 49,-53 57,-121 -43,-33 64,-118 14,-11 50,-38 56,-54 17,-39 6,-31 -21,-58zm-182 -72c-23,48 -23,117 -19,127l77 -69 -58 -58zm-37 72l-5 6c0,0 7,-4 5,-6zm18 0l-5 -5c0,0 4,7 5,5zm164 -18c-28,-68 28,-112 91,-145l-91 145zm127 -200l6 6c0,-1 -7,-4 -6,-6zm-5293 1092c56,-41 29,11 36,-73 -28,32 -24,22 -36,73zm-18 0c-20,19 29,69 9,20 0,-1 21,-51 -9,-20zm-18 36c-38,5 4,96 1,17 0,-7 39,-22 -1,-17zm-273 -218l5 -6c0,1 -7,4 -5,6zm-237 -237c-19,20 29,69 10,20 0,0 21,-50 -10,-20zm-36 73c0,47 29,3 11,0 0,0 -11,-51 -11,0zm-18 18l5 6c0,-1 -3,-8 -5,-6zm0 -182c-20,-19 -69,29 -21,10 1,0 51,21 21,-10zm-237 -545c80,-19 128,-56 193,-99 40,-26 50,-30 92,-55 144,-85 78,-114 -114,15 -57,38 -138,90 -171,139zm-18 0c-46,0 -3,28 0,10 0,0 51,-10 0,-10zm-73 -37c-1,2 6,3 6,6l-6 -6zm-18 18c-2,2 6,3 6,6l-6 -6zm873 -1037c-172,-36 -223,144 -436,201 52,-71 28,-2 54,-73 -99,47 -79,56 -131,57 -51,1 25,-26 -21,-1 -44,25 14,-30 -6,9l-4 16c0,1 0,7 -1,10 -182,4 -105,49 -104,53 3,6 80,-9 5,24 -28,12 -23,0 -23,0l-24 -4c-1,2 0,5 0,9 3,98 65,70 -36,81l0 55c85,-2 57,-1 107,-38 103,-76 97,-37 187,-104l355 -227c57,-35 41,-12 78,-68zm-364 128l-5 -6c0,1 4,8 5,6zm382 164c47,0 3,-29 0,-11 0,0 -50,11 0,11zm37 -19c46,0 3,-28 0,-10 0,0 -51,10 0,10zm127 19l6 5c-1,0 -4,-7 -6,-5zm528 -437l-6 5c1,0 8,-3 6,-5zm72 -91l-36 0 0 73c47,-34 36,6 36,-73zm19 0c19,-19 -29,-69 -10,-20 0,0 -21,50 10,20zm145 -127l-5 -6c0,1 3,8 5,6zm419 163c-32,-31 -61,50 -17,14 2,-1 43,13 17,-14zm18 0c19,-19 -29,-69 -10,-20 0,1 -21,51 10,20zm327 -127c48,-32 38,-9 55,-73l-73 0c36,35 30,15 18,73zm55 -18l5 -6c0,1 -7,4 -5,6zm200 -37l-6 -5c1,0 4,7 6,5zm273 -54c19,19 69,-29 20,-10 0,1 -51,-21 -20,10zm54 -18c2,-2 -5,-8 -5,-6l0 0c0,1 3,8 5,6zm273 -37l-5 -5c0,0 3,7 5,5zm1183 164l-6 -5c0,0 4,7 6,5zm527 73l-5 5c0,0 7,-3 5,-5zm18 0l-5 -6c0,1 3,8 5,6zm0 18c2,2 6,-8 6,-5l0 0c-1,0 -8,3 -6,5zm328 -236c-73,19 -53,4 -55,90 73,-19 53,-4 55,-90zm91 72l-39 90c55,-37 37,4 39,-90zm54 237l-5 -6c0,1 3,8 5,6zm18 -18c47,0 3,-29 0,-11 0,0 -50,11 0,11zm91 36l-7 -8c0,0 2,2 2,3 0,0 4,7 5,5zm164 564l-5 5c0,0 7,-3 5,-5zm218 91c6,0 2,-19 2,-23 -1,-3 41,-21 -6,-16 -2,0 -41,39 4,39zm-145 382l5 -6c0,1 -7,4 -5,6zm-419 691c62,-33 76,-9 37,-91 -40,15 -21,-9 -39,29 -21,43 -12,-5 2,62zm-36 -36c-2,2 5,3 5,5l-5 -5zm0 -310c-67,6 -67,6 -73,73 90,-24 30,-15 73,-73zm-673 364l5 -5c0,0 -7,3 -5,5zm-418 273c45,-30 75,-50 91,-109 -40,14 -29,11 -53,38 -29,32 -26,25 -38,71zm-19 0c-1,2 6,3 6,6l-6 -6zm-218 -164c-2,2 6,3 6,6l-6 -6zm-18 -36l5 5c0,0 -3,-7 -5,-5zm-237 18l55 -109c-85,31 -63,70 -55,109zm-563 -254l5 -6c0,0 -7,4 -5,6zm-146 18c30,-35 59,-57 73,-109 -50,33 -67,34 -73,109zm-600 -128c-2,2 5,3 5,6l0 0c0,-1 -3,-7 -5,-6zm-128 219c5,-49 9,-50 19,-91 -52,27 -184,87 -19,91zm-563 364c-6,1 -55,56 -3,38 33,-11 34,-45 3,-38zm-328 -37c36,50 45,68 55,-18 -23,12 -20,18 -55,18zm-200 18l5 6c0,-1 -3,-8 -5,-6zm-55 19l6 5c-1,0 -4,-7 -6,-5zm-36 54c-10,52 44,-7 14,-3 -33,4 -6,-38 -14,3zm-455 18c0,-46 29,-3 11,0 0,0 -11,51 -11,0zm382 -109l6 6c-1,-1 -8,-4 -6,-6zm-473 -18c8,-95 -17,-33 37,-55 -15,29 -12,44 -37,55zm582 -18c1,-26 -2,-12 4,-33 1,-3 3,-10 4,-14 1,-4 3,-10 5,-14l42 -67c85,63 -16,43 91,55 -68,102 -61,10 -118,38 -20,9 6,2 -28,35zm-345 127c60,-90 95,-181 145,-218 -12,53 -32,85 -53,128 -30,59 -24,72 -92,90zm-219 -200c20,-19 69,29 21,9 -1,0 -51,21 -21,-9zm455 -18l6 5c-1,0 -8,-3 -6,-5zm892 -37c2,-5 70,-29 21,-1 0,0 -40,53 -21,1zm-874 0l6 6c0,-1 -7,-4 -6,-6zm3056 -18l6 6c0,-1 -7,-4 -6,-6zm-2837 55c16,-72 8,-74 73,-91 -7,77 -10,72 -73,91zm-855 36c32,-140 36,-78 91,-182l-26 102c-27,61 -16,47 -65,80zm1015 -124c2,-4 51,-53 58,-58 -14,54 -7,30 -36,73l-22 -15zm2823 -21c-10,-53 39,4 19,3 -37,-2 -12,35 -19,-3zm-164 -19l6 6c-1,0 -8,-4 -6,-6zm-2710 -18l5 6c0,-1 -7,-4 -5,-6zm2765 -18c22,-22 67,31 23,19 0,0 -2,-1 -2,-1 -12,-9 -47,8 -21,-18zm-3314 -33l60 -55c-19,29 -23,41 -39,70l-21 -15zm600 -18c0,-7 10,-19 11,-16 5,19 11,-17 13,-19 35,-31 -19,-16 16,-5 12,28 16,-12 2,23 -9,22 -1,2 -20,32l-22 -15zm2277 -22c0,-46 29,-3 11,0 0,0 -11,51 -11,0zm-1655 -91l5 6c0,-1 -7,-4 -5,-6zm-237 -18l6 6c0,-1 -7,-4 -6,-6zm-1127 -18l5 5c0,0 -7,-3 -5,-5zm-437 0l6 5c-1,0 -8,-3 -6,-5zm55 -73c0,-46 28,-3 10,0 0,0 -10,51 -10,0zm2801 0c-31,4 -26,-53 -1,-24 0,0 0,2 0,2l1 22zm-1583 109c23,-43 17,-38 50,-78l78 -67c-29,53 -64,128 -128,145zm3420 -182c2,-5 70,-29 22,-1 -1,0 -40,53 -22,1zm-1837 0c5,-37 96,5 17,2 -7,0 -22,39 -17,-2zm-2947 0l6 6c-1,0 -8,-4 -6,-6zm5184 -18l6 6c-1,-1 -7,-4 -6,-6zm-3677 3c0,-6 10,-15 11,-13 1,3 7,-7 8,-10 56,-72 77,-120 166,-180l-76 106c-46,49 -51,58 -88,112l-21 -15zm1749 -21l6 6c-1,-1 -8,-4 -6,-6zm2219 -18c2,-15 35,-84 24,-17 0,0 -3,6 -5,7 -1,2 -23,70 -19,10zm-2583 0l6 5c-1,0 -7,-3 -6,-5zm-2855 0l5 5c0,0 -7,-3 -5,-5zm5038 -55l6 6c-1,-1 -8,-4 -6,-6zm473 -36l6 5c-1,0 -8,-3 -6,-5zm-364 -36l6 5c-1,0 -7,-4 -6,-5zm128 -19c0,-1 66,-51 36,-4 0,0 -57,50 -36,4zm-182 37c-55,10 4,-65 5,-32 0,4 14,28 -5,32zm327 -55l6 6c-1,-1 -8,-4 -6,-6zm18 -36l6 5c0,0 -7,-3 -6,-5zm-236 54c17,-62 36,-85 109,-91 -14,53 2,24 -35,56 -24,21 -37,26 -74,35zm-4948 -72l6 5c-1,0 -8,-4 -6,-5zm18 -73l6 5c-1,0 -7,-3 -6,-5zm-72 0l5 5c0,0 -7,-3 -5,-5zm-385 -34c-1,-6 73,-34 94,-39 -4,3 -9,2 -11,8 -4,14 -13,10 -21,16l-62 15zm-34 -57c0,-47 29,-3 11,0 0,0 -11,51 -11,0zm5639 -73c-34,65 3,53 -72,73 30,-29 28,-55 72,-73zm-145 18l0 37 -55 0c29,-42 4,-22 55,-37zm-5439 55c-54,10 -1,-55 4,-38l-4 38zm36 -73l6 6c-1,-1 -8,-4 -6,-6zm419 -18l5 5c0,0 -7,-3 -5,-5zm-637 18c29,-108 -7,16 156,-153 3,-2 7,-6 9,-9 163,-162 113,-21 298,-175l129 -89c72,-58 -31,-44 99,-47 -26,72 -3,2 -54,73 87,-21 28,-12 54,0l-68 42c-90,46 -108,51 -150,31 31,87 5,-15 36,72 -87,8 -63,30 -127,73 -15,-29 -19,34 0,-54 -82,1 -102,23 -148,70l-178 132c-45,35 0,9 -56,34zm400 -236c47,0 3,-29 0,-11 0,0 -51,11 0,11zm36 -19c47,0 3,-28 0,-10 0,0 -50,10 0,10zm201 -145c-22,-22 -67,31 -24,19l7 -5c2,-1 43,13 17,-14zm-310 327c-13,50 -45,87 -74,58 -24,-25 -16,-7 8,-30 40,-38 -10,-19 66,-28zm273 -72c3,-6 24,-4 26,-4 6,1 47,-45 15,3 -25,37 -52,22 -41,1zm5221 54c16,-60 -11,-10 31,-59l34 15c-17,14 -51,35 -65,44zm-5712 -91l5 6c0,-1 -7,-4 -5,-6zm5657 -54l6 5c-1,0 -8,-4 -6,-5zm-5129 -37l5 6c0,-1 -7,-4 -5,-6zm-364 -218l5 5c0,0 -7,-3 -5,-5zm400 -55l5 6c0,-1 -7,-4 -5,-6zm33 -15l56 -42c-21,63 14,11 -35,57l-21 -15zm76 -57c19,-20 69,29 20,9 0,0 -50,21 -20,-9zm4948 18c32,-48 9,-38 73,-55 -25,69 -5,28 -73,55zm-528 -37c0,-49 65,0 17,1 -19,1 -17,41 -17,-1zm-909 -18l5 6c0,-1 -7,-4 -5,-6zm-200 -36c0,-47 29,-3 11,0 -1,0 -11,51 -11,0zm309 18c-25,-14 -20,-10 -55,-18 37,-50 46,-68 55,18zm837 -55l5 6c0,0 -7,-4 -5,-6zm542 -15l0 0zm-4308 -3l6 6c-1,-1 -7,-4 -6,-6zm-72 -18c20,-24 -1,-25 18,5 14,20 27,-15 -1,13 -17,17 -1,31 -17,-10 0,-1 1,-6 0,-8zm1855 -18c2,-6 70,-30 21,-2 0,0 -40,53 -21,2zm-1728 -36c41,9 42,14 91,18 -39,53 0,32 -42,20 -17,-5 -40,-26 -49,-38zm3674 0l6 5c-1,0 -7,-4 -6,-5zm-1109 -19l5 6c0,-1 -7,-4 -5,-6zm1128 -18c2,-6 70,-30 21,-2 0,1 -40,53 -21,2zm-2114 -51c3,-4 47,-32 76,-40l-76 40zm-33 -58c32,26 28,13 -27,46 -46,28 22,2 -46,27 17,-25 11,-17 34,-40 2,-2 7,-6 9,-8l30 -25zm-564 55l6 5c-1,0 -8,-4 -6,-5zm600 -73c1,-2 67,-52 37,-5 -1,1 -58,51 -37,5zm764 -18l6 5c0,0 -7,-4 -6,-5zm-618 -19c-21,58 39,27 -55,37 27,-25 23,-17 55,-37zm2037 -18c0,-46 29,-3 11,0 0,0 -11,51 -11,0zm-2019 0l6 6c-1,-1 -8,-4 -6,-6zm637 -18l5 5c0,0 -7,-3 -5,-5zm-546 55c28,-39 52,-47 91,-73 -16,71 -5,73 -91,73zm1947 -91l5 5c0,0 -7,-3 -5,-5zm-1456 -19c2,-5 70,-29 22,-1 -1,0 -40,53 -22,1zm-673 -36c5,-37 96,5 17,2 -7,0 -22,39 -17,-2z"/>
   <path class="fil1" d="M4640 1241c-57,-5 -115,-9 -174,-13l0 -34c59,4 117,9 174,13l0 34z"/>
   <path class="fil1" d="M2398 1273c58,-4 116,-9 174,-13l0 -33c-58,4 -116,8 -174,13l0 33z"/>
   <g>
    <rect class="fil1" x="4535" y="1135" width="36.5104" height="169.003"/>
    <g>
     <path class="fil2" d="M219 1638c-4,1 -9,-2 -10,-6 -1,-5 2,-9 6,-10l8 -2 9 -2c4,-1 9,2 10,7 1,4 -2,9 -7,10l-9 2 -7 1zm66 -14c-5,1 -9,-2 -10,-7 -1,-4 1,-9 6,-10l10 -2 6 -1c5,-1 9,2 10,6 1,5 -1,9 -6,10l-7 2 -9 2zm65 -15c-4,1 -9,-2 -10,-6 -1,-5 2,-9 7,-10l1 0 12 -3 3 -1c5,-1 9,2 10,7 1,4 -2,9 -6,10l-3 0 -12 3 -2 0zm66 -14c-5,1 -9,-2 -10,-6 -1,-5 2,-9 6,-10l7 -2 10 -2c4,-1 9,2 10,7 1,4 -2,9 -7,9l-10 3 -6 1zm65 -14c-4,1 -9,-2 -10,-7 -1,-4 2,-9 7,-9l0 -1 12 -2 4 -1c5,-1 9,2 10,6 1,5 -2,9 -6,10l-4 1 -12 3 -1 0zm66 -14c-4,1 -9,-2 -10,-6 -1,-5 2,-9 7,-10l7 -2 9 -2c5,-1 9,2 10,7 1,4 -2,9 -7,10l-8 1 -8 2zm66 -14c-5,1 -9,-2 -10,-6 -1,-5 2,-9 6,-10l4 -1 12 -2 1 -1c4,-1 9,2 10,7 1,4 -2,9 -7,10l0 0 -13 3 -3 0zm65 -13c-4,1 -9,-2 -9,-7 -1,-4 2,-9 6,-10l0 0 13 -2 4 -1c4,-1 9,2 9,6 1,5 -2,9 -6,10l-4 1 -12 3 -1 0zm66 -14c-4,1 -9,-2 -10,-6 -1,-5 2,-9 7,-10l10 -2 6 -1c5,-1 9,2 10,6 1,5 -2,9 -6,10l-7 1 -10 2zm66 -13c-5,1 -9,-2 -10,-6 -1,-5 2,-9 7,-10l8 -2 8 -2c5,-1 9,2 10,7 1,5 -2,9 -7,10l-7 1 -9 2zm66 -13c-5,1 -9,-2 -10,-6 -1,-5 2,-9 7,-10l8 -2 8 -2c5,0 9,3 10,7 1,5 -2,9 -7,10l-8 2 -8 1zm66 -13c-5,1 -9,-2 -10,-6 -1,-5 2,-9 7,-10l7 -2 9 -1c5,-1 9,2 10,6 1,5 -2,9 -7,10l-8 2 -8 1zm66 -12c-5,1 -9,-2 -10,-7 -1,-4 2,-9 7,-10l8 -1 8 -2c5,-1 9,2 10,7 1,4 -2,9 -7,10l-8 1 -8 2zm66 -13c-5,1 -9,-2 -10,-6 -1,-5 2,-9 7,-10l9 -2 7 -1c5,-1 9,2 10,7 1,4 -2,9 -7,9l-6 2 -10 1zm66 -12c-5,1 -9,-2 -10,-6 -1,-5 2,-9 7,-10l12 -2 4 -1c5,-1 9,2 10,7 1,4 -2,9 -7,9l-4 1 -12 2zm66 -12c-5,1 -9,-2 -10,-6 -1,-5 2,-9 7,-10l1 0 14 -3 1 0c5,-1 9,2 10,7 1,4 -2,9 -7,9l-1 1 -14 2 -1 0zm66 -11c-5,1 -9,-3 -10,-7 -1,-5 2,-9 7,-10l4 -1 12 -2c5,0 9,3 10,7 1,5 -2,9 -7,10l-12 2 -4 1zm66 -12c-5,1 -9,-2 -10,-7 -1,-4 3,-8 7,-9l9 -2 8 -1c4,-1 9,2 9,7 1,4 -2,9 -7,9l-8 2 -8 1zm66 -11c-4,1 -9,-2 -10,-7 0,-4 3,-9 7,-9l13 -3 4 0c4,-1 9,2 10,7 0,4 -3,9 -7,9l-4 1 -13 2zm66 -11c-4,1 -9,-2 -9,-7 -1,-4 2,-9 7,-9l4 -1 12 -2c5,-1 9,2 10,7 1,4 -3,9 -7,9l-13 2 -4 1zm67 -11c-5,1 -9,-2 -10,-7 -1,-4 2,-8 7,-9l10 -2 6 -1c5,0 9,3 10,7 1,5 -2,9 -7,10l-6 1 -10 1zm66 -10c-5,1 -9,-2 -10,-7 0,-5 3,-9 7,-10l2 0 15 -2 0 0c4,-1 9,2 9,7 1,4 -2,9 -7,9l0 0 -14 3 -2 0zm66 -10c-4,0 -9,-3 -9,-7 -1,-5 2,-9 7,-10l9 -1 7 -1c5,-1 9,2 10,7 0,4 -3,9 -7,9l-8 1 -9 2zm67 -10c-5,1 -9,-3 -10,-7 -1,-5 2,-9 7,-10l2 0 15 -2 0 0c4,-1 9,2 9,7 1,4 -2,9 -7,9l0 0 -15 3 -1 0zm66 -10c-5,1 -9,-2 -10,-7 0,-5 3,-9 8,-9l9 -2 7 -1c5,-1 9,3 10,7 0,5 -3,9 -7,10l-7 1 -10 1zm66 -9c-4,0 -8,-3 -9,-7 -1,-5 2,-9 7,-10l3 0 14 -2c4,-1 9,2 9,7 1,5 -2,9 -7,9l-13 2 -4 1zm67 -9c-5,0 -9,-3 -10,-8 0,-4 3,-8 8,-9l12 -2 4 0c5,-1 9,2 10,7 0,4 -3,9 -8,9l-4 1 -12 2zm66 -9c-4,0 -8,-3 -9,-8 -1,-4 3,-8 7,-9l7 -1 10 -1c4,-1 9,3 9,7 1,5 -2,9 -7,10l-10 1 -7 1zm67 -9c-5,1 -9,-3 -9,-7 -1,-5 2,-9 7,-10l1 0 15 -2c5,0 9,3 10,8 0,4 -3,8 -7,9l-16 2 -1 0zm66 -8c-4,0 -8,-3 -9,-8 0,-4 3,-8 7,-9l12 -1 5 -1c5,0 9,3 9,7 1,5 -2,9 -7,10l-5 0 -12 2zm67 -8c-4,0 -9,-3 -9,-8 -1,-4 3,-8 7,-9l7 -1 10 -1c4,0 9,3 9,7 1,5 -3,9 -7,10l-10 1 -7 1zm67 -8c-5,1 -9,-3 -10,-7 0,-5 3,-9 8,-10l3 0 14 -2c4,0 8,3 9,8 0,4 -3,9 -8,9l-13 2 -3 0zm66 -7c-4,0 -8,-3 -9,-8 0,-4 3,-9 8,-9l14 -2 2 0c5,0 9,3 10,7 0,5 -3,9 -8,10l-2 0 -15 2zm268 -27c-5,0 -9,-3 -10,-8 0,-4 3,-9 8,-9l2 0 15 -1c4,-1 8,2 9,7 0,5 -3,9 -8,9l-14 2 -2 0zm66 -6c-4,0 -8,-3 -9,-8 0,-4 3,-9 8,-9l16 -1 1 0c4,-1 8,3 9,7 0,5 -3,9 -8,9l-1 0 -16 2zm67 -6c-4,1 -8,-3 -9,-8 0,-4 3,-8 8,-9l14 -1 3 0c4,0 8,3 9,8 0,4 -3,8 -8,9l-3 0 -14 1zm67 -5c-5,0 -9,-3 -9,-8 0,-4 3,-9 8,-9l12 -1 5 0c4,0 8,3 9,8 0,4 -4,8 -8,9l-5 0 -12 1zm67 -5c-5,0 -9,-3 -9,-8 0,-5 3,-9 8,-9l10 -1 7 0c4,0 8,3 9,8 0,4 -4,8 -8,9l-6 0 -11 1zm67 -5c-5,1 -9,-3 -9,-8 0,-4 3,-8 8,-9l9 0 8 -1c4,0 8,4 9,8 0,5 -4,9 -8,9l-8 1 -9 0zm67 -4c-5,0 -9,-3 -9,-8 0,-5 3,-9 8,-9l8 0 9 -1c4,0 8,3 9,8 0,5 -4,9 -8,9l-9 0 -8 1zm67 -4c-5,0 -9,-3 -9,-8 0,-5 3,-9 8,-9l7 0 10 -1c4,0 8,4 9,8 0,5 -4,9 -8,9l-10 1 -7 0zm67 -4c-5,1 -9,-3 -9,-8 0,-4 3,-8 8,-8l7 -1 10 0c4,-1 8,3 9,8 0,4 -4,8 -8,8l-10 1 -7 0zm67 -3c-5,0 -9,-3 -9,-8 0,-5 4,-9 8,-9l7 0 10 -1c5,0 8,4 9,8 0,5 -4,9 -8,9l-11 1 -6 0zm67 -3c-5,0 -9,-3 -9,-8 0,-5 4,-9 8,-9l6 0 11 0c5,-1 9,3 9,8 0,4 -4,8 -8,8l-11 1 -6 0zm67 -3c-5,1 -9,-3 -9,-8 0,-4 4,-8 8,-8l7 -1 10 0c5,0 9,3 9,8 0,5 -4,9 -8,9l-11 0 -6 0zm67 -2c-5,0 -8,-3 -9,-8 0,-5 4,-9 9,-9l6 0 10 0c5,0 9,3 9,8 0,5 -4,8 -8,9l-10 0 -7 0zm67 -2c-5,0 -8,-3 -8,-8 -1,-5 3,-8 8,-9l7 0 9 0c5,0 9,4 9,8 0,5 -4,9 -8,9l-10 0 -7 0zm67 -1c-4,0 -8,-4 -8,-9 0,-4 3,-8 8,-8l8 0 9 0c4,0 8,3 8,8 0,4 -3,8 -8,8l-9 1 -8 0zm67 -1c-4,0 -8,-4 -8,-9 0,-4 3,-8 8,-8l9 0 8 0c4,-1 8,3 8,8 0,4 -3,8 -8,8l-8 0 -9 1zm67 -1c-4,0 -8,-4 -8,-9 0,-4 4,-8 8,-8l10 0 7 0c5,0 8,3 8,8 0,5 -3,9 -8,9l-7 0 -10 0zm67 0c-4,0 -8,-4 -8,-9 0,-5 4,-8 8,-8l12 0 5 0c5,0 9,4 9,8 0,5 -4,9 -9,9l-6 0 -11 0zm67 0c-4,0 -8,-4 -8,-8 0,-5 4,-9 9,-9l12 1 4 0c5,0 9,4 9,8 0,5 -4,9 -9,8l-4 0 -13 0zm68 1c-5,0 -9,-4 -9,-8 0,-5 4,-9 9,-8l13 0 4 0c4,0 8,4 8,8 0,5 -4,9 -9,9l-3 0 -13 -1zm67 2c-5,0 -9,-4 -9,-9 1,-5 4,-8 9,-8l14 0 3 0c4,0 8,4 8,9 0,5 -4,8 -9,8l-3 0 -13 0zm67 2c-5,-1 -9,-5 -8,-9 0,-5 4,-8 8,-8l15 0 2 0c5,0 8,4 8,9 0,5 -4,8 -9,8l-2 0 -14 0zm67 2c-5,-1 -9,-4 -8,-9 0,-5 4,-8 8,-8l15 0 2 0c5,1 8,5 8,9 0,5 -4,8 -9,8l-2 0 -14 0zm67 2c-5,0 -8,-4 -8,-9 0,-4 4,-8 8,-8l15 1 2 0c5,0 8,4 8,9 0,4 -4,8 -8,8l-2 0 -15 -1zm67 3c-5,0 -8,-4 -8,-9 0,-4 4,-8 9,-8l14 1 2 0c5,0 9,4 8,9 0,4 -4,8 -8,8l-2 0 -15 -1zm67 3c-5,0 -8,-4 -8,-9 0,-4 4,-8 9,-8l14 1 2 0c5,1 9,4 8,9 0,5 -4,8 -8,8l-3 0 -14 -1zm67 4c-5,-1 -8,-4 -8,-9 0,-5 4,-8 9,-8l14 1 3 0c4,0 8,4 7,9 0,4 -4,8 -8,8l-3 0 -14 -1zm67 4c-5,-1 -8,-5 -8,-9 0,-5 4,-8 9,-8l13 1 4 0c4,0 8,4 7,9 0,4 -4,8 -8,8l-4 -1 -13 0zm268 18c-5,0 -9,-4 -8,-9 0,-4 4,-8 9,-7l7 0 10 1c4,0 8,4 7,9 0,5 -4,8 -9,8l-9 -1 -7 -1zm66 6c-4,0 -8,-5 -7,-9 0,-5 4,-8 9,-8l5 1 12 1c4,0 8,4 7,9 0,4 -4,8 -9,7l-11 -1 -6 0zm67 6c-4,-1 -8,-5 -7,-9 0,-5 4,-8 9,-8l3 0 14 2c4,0 8,4 7,9 0,4 -4,8 -9,7l-13 -1 -4 0zm67 6c-5,-1 -8,-5 -7,-9 0,-5 4,-8 9,-8l0 0 16 2c5,0 8,4 8,9 0,5 -5,8 -9,8l-16 -2 -1 0zm67 6c-5,0 -8,-4 -8,-9 1,-4 5,-8 10,-7l13 1 3 0c5,1 8,5 8,10 -1,4 -5,7 -9,7l-3 0 -14 -2zm67 7c-5,0 -8,-4 -8,-9 1,-5 5,-8 9,-8l11 2 6 0c5,1 8,5 8,9 -1,5 -5,8 -10,8l-6 -1 -10 -1zm66 7c-4,0 -8,-4 -7,-9 0,-5 5,-8 9,-8l7 1 10 1c4,1 8,5 7,10 0,4 -4,7 -9,7l-9 -1 -8 -1zm67 8c-5,-1 -8,-5 -7,-10 0,-4 4,-8 9,-7l3 0 14 2c4,0 8,4 7,9 0,5 -5,8 -9,7l-14 -1 -3 0zm67 7c-5,0 -8,-5 -8,-9 1,-5 5,-8 10,-8l15 2 1 0c5,1 8,5 8,10 -1,4 -5,8 -10,7l-1 0 -15 -2zm66 8c-4,0 -7,-5 -7,-9 1,-5 5,-8 9,-8l11 2 6 0c5,1 8,5 7,10 0,4 -4,8 -9,7l-6 -1 -11 -1zm67 8c-5,0 -8,-4 -7,-9 0,-5 4,-8 9,-7l6 0 11 2c4,0 8,5 7,9 -1,5 -5,8 -9,7l-11 -1 -6 -1zm67 9c-5,-1 -8,-5 -8,-10 1,-4 5,-7 10,-7l0 0 15 2 1 0c5,1 8,5 8,10 -1,4 -5,8 -10,7l-1 0 -15 -2 0 0zm66 9c-5,-1 -8,-5 -7,-10 0,-4 5,-8 9,-7l10 1 7 1c5,1 8,5 7,10 0,4 -5,7 -9,7l-7 -1 -10 -1zm67 9c-5,-1 -8,-5 -8,-10 1,-4 5,-8 10,-7l4 1 12 1c5,1 8,5 8,10 -1,4 -5,8 -10,7l-12 -2 -4 0zm66 9c-5,-1 -8,-5 -7,-10 1,-4 5,-7 9,-7l13 2 4 1c5,0 8,5 7,9 -1,5 -5,8 -9,7l-4 0 -13 -2zm66 9c-4,0 -7,-4 -7,-9 1,-5 5,-8 10,-7l6 1 10 1c5,1 8,5 8,10 -1,4 -5,8 -10,7l-10 -2 -7 -1zm67 10c-5,0 -8,-5 -7,-9 0,-5 5,-8 9,-7l14 2 3 0c5,1 8,5 7,10 -1,4 -5,8 -10,7l-2 -1 -14 -2zm66 10c-4,0 -8,-5 -7,-9 1,-5 5,-8 10,-7l6 1 10 1c5,1 8,5 7,10 0,5 -5,8 -9,7l-10 -2 -7 -1zm66 11c-4,-1 -7,-5 -7,-10 1,-4 6,-8 10,-7l13 2 4 1c4,1 7,5 7,9 -1,5 -5,8 -10,7l-3 0 -14 -2zm67 10c-5,0 -8,-5 -7,-9 1,-5 5,-8 9,-7l5 1 12 2c5,0 8,5 7,9 -1,5 -5,8 -10,7l-12 -2 -4 -1zm66 11c-5,-1 -8,-5 -7,-9 1,-5 5,-8 10,-7l10 1 6 1c5,1 8,6 7,10 -1,5 -5,8 -9,7l-7 -1 -10 -2zm66 11c-4,0 -8,-5 -7,-9 1,-5 5,-8 10,-7l1 0 14 2 2 1c4,0 7,5 6,9 0,5 -5,8 -9,7l-2 0 -14 -3 -1 0zm66 12c-4,-1 -7,-5 -7,-10 1,-5 6,-8 10,-7l5 1 12 2c4,1 7,5 7,10 -1,4 -6,7 -10,7l-12 -2 -5 -1zm66 11c-4,-1 -7,-5 -6,-9 0,-5 5,-8 9,-7l9 1 8 2c4,0 7,5 7,9 -1,5 -6,8 -10,7l-8 -1 -9 -2zm66 12c-4,-1 -7,-5 -6,-10 1,-4 5,-7 9,-6l12 2 5 1c5,0 8,5 7,9 -1,5 -5,8 -10,7l-5 -1 -12 -2zm66 12c-4,-1 -7,-5 -6,-10 1,-4 5,-7 10,-6l0 0 13 2 3 1c5,0 8,5 7,9 -1,5 -5,8 -10,7l-3 0 -13 -3 -1 0zm66 12c-4,-1 -7,-5 -6,-9 1,-5 5,-8 10,-7l2 0 13 3 1 0c5,1 8,5 7,10 -1,4 -5,7 -10,6l-1 0 -14 -2 -2 -1zm66 13c-4,-1 -7,-5 -6,-10 1,-5 5,-8 10,-7l2 1 14 2 0 0c5,1 8,6 7,10 -1,5 -6,8 -10,7l0 0 -14 -3 -3 0zm66 12c-4,0 -7,-5 -6,-9 1,-5 5,-8 10,-7l3 1 13 2 0 0c5,1 8,5 7,10 -1,5 -6,8 -10,7l0 0 -14 -3 -3 -1zm66 13c-4,-1 -7,-5 -6,-10 0,-4 5,-7 9,-6l3 0 13 3 1 0c4,1 7,5 7,10 -1,5 -6,7 -10,7l-1 -1 -13 -2 -3 -1zm66 13c-5,0 -7,-5 -7,-9 1,-5 6,-8 10,-7l1 0 13 3 3 0c4,1 7,6 6,10 -1,5 -5,8 -10,7l-2 -1 -13 -2 -1 -1zm66 14c-5,-1 -8,-6 -7,-10 1,-5 6,-8 10,-7l12 3 5 1c4,1 7,5 6,10 -1,4 -5,7 -10,6l-5 -1 -11 -2zm66 13c-5,-1 -8,-5 -7,-10 1,-4 5,-7 10,-6l8 2 8 1c5,1 8,6 7,10 -1,5 -6,8 -10,7l-8 -2 -8 -2zm65 14c-4,-1 -7,-6 -6,-10 1,-5 5,-7 10,-7l4 1 12 3c5,1 8,5 7,10 -1,4 -6,7 -10,6l-12 -2 -5 -1zm66 14c-5,-1 -8,-6 -7,-10 1,-5 6,-8 10,-7l12 3 5 1c4,1 7,5 6,10 -1,4 -5,7 -10,6l-4 -1 -12 -2zm66 14c-5,-1 -8,-6 -7,-10 1,-5 6,-8 10,-7l6 2 10 2c5,1 8,5 7,10 -1,4 -6,7 -10,6l-10 -2 -6 -1zm65 14c-4,-1 -7,-6 -6,-10 1,-5 5,-7 10,-6l11 2 5 1c5,1 8,6 7,10 -1,5 -6,7 -10,7l-6 -2 -11 -2zm66 14c-5,-1 -8,-5 -7,-10 1,-4 6,-7 10,-6l4 1 11 2 2 1c4,0 7,5 6,10 -1,4 -5,7 -10,6l-1 0 -12 -3 -3 -1zm65 15c-4,-1 -7,-6 -6,-10 1,-5 5,-8 10,-7l6 2 10 2c5,1 8,6 7,10 -1,5 -6,7 -10,6l-11 -2 -6 -1z"/>
     <rect class="fil1" x="2467" y="1164" width="36.5104" height="169.003"/>
    </g>
   </g>
  </g>
 </g>
</svg>
